<?xml version="1.0" standalone="no"?>
<!DOCTYPE svg PUBLIC "-//W3C//DTD SVG 1.1//EN" "http://www.w3.org/Graphics/SVG/1.1/DTD/svg11.dtd" >
<svg xmlns="http://www.w3.org/2000/svg" xmlns:xlink="http://www.w3.org/1999/xlink" version="1.1">
<metadata></metadata>
<defs>
<font id="unnaregular" horiz-adv-x="512" >
<font-face units-per-em="2048" ascent="1638" descent="-410" />
<missing-glyph horiz-adv-x="450" />
<glyph horiz-adv-x="0" />
<glyph horiz-adv-x="682" />
<glyph unicode=" "  horiz-adv-x="450" />
<glyph unicode="&#x09;" horiz-adv-x="450" />
<glyph unicode="&#xa0;" horiz-adv-x="450" />
<glyph unicode="!" horiz-adv-x="550" d="M184 98q0 49 38.5 83t94.5 34q55 0 93.5 -34.5t38.5 -84.5q0 -47 -40 -81.5t-94 -34.5q-52 0 -91.5 34.5t-39.5 83.5zM205 1194q0 51 28.5 81t81.5 30q54 0 83.5 -30t29.5 -81q0 -46 -12 -129l-41 -287q-35 -216 -35 -334q0 -32 -23 -32q-24 0 -24 32q0 118 -35 334 l-41 287q-12 83 -12 129z" />
<glyph unicode="&#x22;" horiz-adv-x="516" d="M70 1229q0 38 18 60t49 22t49.5 -22t18.5 -60q0 -17 -10 -115q-16 -119 -17 -131q-14 -95 -14 -111q0 -34 -27 -34q-26 0 -26 34q0 9 -15 111q-1 15 -6 60t-8 71q-12 88 -12 115zM311 1229q0 38 18.5 60t49.5 22t49 -22t18 -60q0 -17 -10 -115q-14 -102 -16 -131 q-14 -95 -14 -111q0 -34 -27 -34t-27 34q0 16 -14 111q-1 15 -6 60t-8 71q-13 96 -13 115z" />
<glyph unicode="#" horiz-adv-x="1034" d="M37 397l22 82h203l107 350h-205l22 82h205l121 398h82l-121 -398h234l120 398h82l-118 -398h206l-22 -82h-209l-104 -350h206l-24 -82h-207l-125 -415h-82l125 415h-233l-125 -415h-82l125 415h-203zM344 479h236l104 350h-233z" />
<glyph unicode="$" horiz-adv-x="915" d="M170 276l8 218l49 2q0 -87 71.5 -145t172.5 -58q61 0 97 31t36 82q0 42 -27 68.5t-88 39.5l-143 39q-79 20 -121.5 71.5t-42.5 125.5q0 92 64.5 150.5t175.5 64.5v360h76v-364q36 -5 80 -19q46 -14 77 -14q28 0 50 14l-11 -186h-43q0 66 -53.5 112.5t-142.5 46.5 q-59 0 -93 -28.5t-34 -73.5q0 -74 100 -98l141 -37q96 -26 136 -74.5t40 -128.5q0 -98 -66.5 -158t-180.5 -71v-441h-76v441q-35 2 -156 35q-30 6 -47 6q-31 0 -49 -11z" />
<glyph unicode="%" horiz-adv-x="1171" d="M53 956q0 129 70 208t190 79t189 -79.5t69 -207.5t-68 -206t-190 -78q-124 0 -192 78.5t-68 205.5zM104 10l877 1229l70 -41l-879 -1235zM205 958q0 -134 24 -192q23 -57 84 -57q60 0 84 59q25 61 25 190q0 130 -25 191q-23 57 -84 57q-60 0 -84 -59t-24 -189zM600 264 q0 129 70 208t190 79t189 -79.5t69 -207.5t-68 -206t-190 -78q-124 0 -192 78.5t-68 205.5zM752 266q0 -134 24 -192t84 -58q59 0 84 60q25 61 25 190q0 130 -25 191q-23 57 -84 57q-60 0 -84 -59t-24 -189z" />
<glyph unicode="&#x26;" horiz-adv-x="1249" d="M66 283q0 131 81 231.5t265 175.5q-36 48 -59.5 84t-47.5 100t-24 123q0 104 75 174t205 70q124 0 189 -60.5t65 -152.5q0 -85 -53 -168t-150 -137l291 -383q41 109 41 244q0 28 -6 40.5t-11 13.5t-18 1l-88 -4v61h307v-59l-81 2q-11 0 -17 -1.5t-12.5 -10.5t-7.5 -27 q-8 -170 -66 -311l154 -203q28 -35 67 -33l115 4l-2 -55h-342l-94 123q-136 -143 -369 -143q-85 0 -153 15t-110.5 41t-72.5 56.5t-44.5 66.5t-20.5 64.5t-6 57.5zM248 311q0 -125 74.5 -196.5t195.5 -71.5q168 0 287 131l-363 475q-43 -24 -75 -51t-60.5 -66.5t-43.5 -95 t-15 -125.5zM442 1026q0 -18 4.5 -38t9.5 -35t18 -37.5t19 -33.5t23.5 -35t22 -29.5t23.5 -29.5l20 -24q75 34 123.5 110.5t48.5 151.5q0 67 -42 109.5t-128 42.5q-65 0 -103.5 -40.5t-38.5 -111.5z" />
<glyph unicode="'" horiz-adv-x="272" d="M70 1229q0 38 18 60t49 22t49.5 -22t18.5 -60q0 -17 -10 -115q-16 -119 -17 -131q-14 -95 -14 -111q0 -34 -27 -34q-26 0 -26 34q0 9 -15 111q-1 15 -6 60t-8 71q-12 88 -12 115z" />
<glyph unicode="(" horiz-adv-x="520" d="M37 492q0 499 395 964h88q-47 -61 -95.5 -155t-93.5 -217.5t-73.5 -280t-28.5 -311.5q0 -168 28 -326.5t74.5 -279.5t93 -208.5t95.5 -150.5h-88q-395 465 -395 965z" />
<glyph unicode=")" horiz-adv-x="520" d="M0 -473q47 60 95.5 154.5t93.5 218.5t73.5 280.5t28.5 311.5q0 168 -28 326.5t-74.5 279.5t-93 208t-95.5 150h88q395 -465 395 -964q0 -500 -395 -965h-88z" />
<glyph unicode="*" horiz-adv-x="692" d="M41 1008q0 80 68 77q21 0 48 -24.5t64 -24.5q29 0 58 13q-3 26 -21 53q-16 26 -53 41t-45 31q-15 27 -15 43q0 28 50 55q30 18 51 18q26 0 49 -39q6 -12 6 -20q0 -6 -6 -21t-6 -24q0 -23 20 -56q9 -21 37 -43q28 22 37 43q18 34 18 56q0 4 -4 24q-6 15 -6 21q0 8 6 20 q23 39 49 39q22 0 52 -18q49 -27 49 -55q0 -16 -15 -43q-8 -15 -25.5 -21.5t-38 -17t-34.5 -33.5q-15 -24 -18 -55q29 -11 55 -11q34 0 63.5 24.5t49.5 24.5q38 0 52.5 -16.5t14.5 -60.5t-14.5 -61t-52.5 -17q-21 0 -48.5 24.5t-64.5 24.5q-30 0 -57 -12q4 -30 20 -54 q16 -26 53 -40.5t45 -30.5q15 -27 15 -43q0 -29 -47 -56q-34 -18 -54 -18q-26 0 -49 39q-6 12 -6 20q0 6 6 21t6 24q0 23 -20 56q-9 21 -37 43q-28 -22 -37 -43q-18 -35 -18 -56q0 -9 6 -24q4 -20 4 -21q0 -8 -6 -20q-23 -39 -49 -39q-21 0 -51 18q-50 27 -50 56q0 16 15 43 q8 15 25.5 21.5t38 16.5t34.5 33q15 24 18 56q-27 10 -55 10q-34 0 -63 -24.5t-49 -24.5q-38 0 -53 17t-15 61z" />
<glyph unicode="+" horiz-adv-x="942" d="M41 530v91h381v378h100v-378h379v-91h-379v-380h-100v380h-381z" />
<glyph unicode="," d="M123 -305q56 51 98.5 120t42.5 115q0 60 -74 60q-65 0 -65 88q0 43 36 75.5t83 32.5q143 0 143 -170q0 -96 -64.5 -186.5t-160.5 -157.5z" />
<glyph unicode="-" d="M45 387v113h422v-113h-422z" />
<glyph unicode="." d="M123 96q0 53 37.5 86t95.5 33t95.5 -33t37.5 -86t-37.5 -84.5t-95.5 -31.5t-95.5 31.5t-37.5 84.5z" />
<glyph unicode="/" horiz-adv-x="505" d="M-10 12l448 1288l78 -18l-446 -1292z" />
<glyph unicode="0" horiz-adv-x="1060" d="M61 608q0 310 123.5 472.5t347.5 162.5q229 0 348 -160.5t119 -474.5q0 -305 -124 -466.5t-351 -161.5q-228 0 -345.5 160t-117.5 468zM244 610q0 -218 24 -344q24 -120 88.5 -172.5t171.5 -52.5q103 0 174 53q66 51 92.5 172.5t26.5 343.5t-24 348q-25 122 -92.5 176 t-176.5 54q-155 0 -219 -131q-65 -133 -65 -447z" />
<glyph unicode="1" horiz-adv-x="792" d="M127 1110v53q145 41 334 101h35v-1176q0 -41 39 -41l133 2v-49h-508v49l135 -2q43 0 43 41v991q0 31 -43 31h-168z" />
<glyph unicode="2" horiz-adv-x="1036" d="M96 92q378 293 488 469q108 175 108 359q0 127 -55 197.5t-150 70.5q-93 0 -149.5 -42.5t-56.5 -115.5q0 -25 12 -55q10 -33 10 -55q0 -38 -27.5 -57t-66.5 -19q-48 0 -75.5 31t-27.5 86q0 72 44 137q44 67 135.5 106t218.5 39q174 0 273.5 -80.5t99.5 -251.5 q0 -165 -129 -344q-129 -178 -488 -428v-4h361q117 0 171 44.5t66 158.5h74q-48 -281 -51 -344q-18 6 -111 6h-670z" />
<glyph unicode="3" horiz-adv-x="1019" d="M72 236q0 48 25.5 75t74.5 27q44 0 70 -22t26 -58q0 -23 -10 -53q-10 -33 -10 -47q0 -56 60 -89.5t153 -33.5q145 0 224 80.5t79 214.5q0 60 -18 107t-59.5 86.5t-119 62.5t-188.5 26v58q153 17 230 97.5t77 217.5q0 99 -53 151t-158 52q-86 0 -143.5 -35t-57.5 -90 q0 -10 13 -47q10 -38 10 -51q0 -37 -29 -58.5t-69 -21.5q-50 0 -75.5 28.5t-25.5 77.5q0 105 118 178.5t286 73.5q159 0 262.5 -70t103.5 -194q0 -131 -84 -210t-266 -114v-4q428 -21 428 -313q0 -124 -63 -199q-62 -78 -168 -118.5t-238 -40.5q-121 0 -211 34 q-92 35 -143 94t-51 128z" />
<glyph unicode="4" horiz-adv-x="962" d="M35 317v123q38 32 61 62l60 63l462 570l33 45l43 57h51v-795h164v-125h-164v-229q0 -41 39 -41l95 2v-49h-467v49l137 -2q37 0 37 41v229h-551zM133 442h453v557z" />
<glyph unicode="5" horiz-adv-x="1007" d="M78 252q0 106 104 106q39 0 65.5 -21t26.5 -58q0 -24 -10 -54q-12 -30 -12 -45q0 -69 65.5 -107t163.5 -38q121 0 190.5 95.5t69.5 260.5q0 287 -299 287q-71 0 -134.5 -30t-108.5 -79l-54 33l41 621h529q85 0 170 6q-19 -73 -29 -144h-606l-35 -426q58 45 141.5 74 t157.5 29q187 0 299.5 -103t112.5 -276q0 -122 -60 -213q-61 -91 -162.5 -140.5t-224.5 -49.5q-171 0 -286 75t-115 197z" />
<glyph unicode="6" horiz-adv-x="993" d="M92 553q0 116 16.5 216.5t53.5 189t92.5 150.5t138 98t185.5 36q92 0 165 -29q64 -30 96.5 -74t32.5 -93q0 -46 -28.5 -78.5t-77.5 -32.5q-40 0 -66 20t-26 54q0 18 8 37t8 38q0 43 -38 72t-97 29q-136 0 -210.5 -152t-76.5 -428q99 170 289 170q177 0 276 -102t99 -271 q0 -196 -116 -311t-308 -115q-211 0 -313.5 149t-102.5 427zM266 375q0 -152 67.5 -249t190.5 -97q229 0 232 333q0 359 -232 359q-119 0 -188.5 -99.5t-69.5 -246.5z" />
<glyph unicode="7" horiz-adv-x="874" d="M61 967l7 41q24 194 24 221q27 -6 244 -6h518l8 -86q-185 -205 -288 -456t-103 -527q0 -75 8 -154h-192q3 167 39 338q78 371 413 747h-422q-90 0 -132 -27.5t-50 -90.5h-74z" />
<glyph unicode="8" horiz-adv-x="1009" d="M76 266q0 116 82.5 212t216.5 147q-128 72 -187 143t-59 166q0 136 118 222.5t298 86.5q166 0 269.5 -71t103.5 -197q0 -112 -82.5 -194.5t-196.5 -110.5q81 -36 147.5 -84.5t114 -120t47.5 -148.5q0 -99 -65 -176t-172 -119t-232 -42q-113 0 -202.5 31.5t-145 97.5 t-55.5 157zM211 274q0 -106 76 -172.5t205 -66.5q119 0 191.5 57.5t72.5 155.5q0 78 -47 143q-44 58 -104.5 100t-178.5 105q-92 -45 -153.5 -135t-61.5 -187zM317 991q0 -88 62.5 -151t210.5 -144q198 88 198 277q0 104 -60.5 159.5t-170.5 55.5q-109 0 -174.5 -53.5 t-65.5 -143.5z" />
<glyph unicode="9" horiz-adv-x="993" d="M96 817q0 196 116 311t308 115q212 0 314 -148.5t102 -426.5q0 -116 -16.5 -217t-53.5 -189t-92 -150.5t-137.5 -98.5t-185.5 -36q-97 0 -164 31q-65 28 -98 72t-33 94q0 46 28.5 78.5t77.5 32.5q40 0 66 -20t26 -54q0 -18 -8 -37t-8 -39q0 -43 38 -71.5t97 -28.5 q136 0 210.5 151.5t76.5 427.5q-99 -170 -289 -170q-177 0 -276 102t-99 271zM272 858q0 -358 232 -358q119 0 188.5 99.5t69.5 246.5q0 152 -67.5 249t-190.5 97q-232 0 -232 -334z" />
<glyph unicode=":" d="M123 96q0 53 37.5 86t95.5 33t95.5 -33t37.5 -86t-37.5 -84.5t-95.5 -31.5t-95.5 31.5t-37.5 84.5zM123 707q0 53 37.5 85.5t95.5 32.5t95.5 -32.5t37.5 -85.5t-37.5 -85t-95.5 -32t-95.5 32t-37.5 85z" />
<glyph unicode=";" d="M111 707q0 53 37.5 85.5t95.5 32.5t95.5 -32.5t37.5 -85.5t-37.5 -85t-95.5 -32t-95.5 32t-37.5 85zM127 -305q56 51 98.5 120t42.5 115q0 60 -73 60q-66 0 -66 88q0 43 36 75.5t83 32.5q143 0 143 -170q0 -96 -64.5 -186.5t-160.5 -157.5z" />
<glyph unicode="&#x3c;" horiz-adv-x="942" d="M111 420v49l720 434v-98l-524 -318l-88 -41l88 -43l524 -315v-100z" />
<glyph unicode="=" horiz-adv-x="942" d="M72 211v88h798v-88h-798zM72 618v89h798v-89h-798z" />
<glyph unicode="&#x3e;" horiz-adv-x="942" d="M111 -10v98l524 318l88 40l-88 43l-524 316v100l720 -432v-49z" />
<glyph unicode="?" horiz-adv-x="819" d="M80 1198q0 79 103 126.5t251 47.5q161 0 255.5 -59.5t94.5 -163.5q0 -163 -166 -275q-13 -9 -42.5 -29t-40 -28l-31.5 -24t-29.5 -26.5t-20.5 -26.5t-17.5 -32.5t-8.5 -35.5q-15 -108 -18 -248h-84q-33 206 -33 287q0 25 9.5 46.5t37 50t46.5 44.5t69 57 q88 71 115.5 131.5t27.5 133.5q0 63 -52 103t-145 40q-72 0 -121 -23t-49 -63q0 -9 11 -35q8 -19 8 -37q0 -57 -74 -57q-47 0 -71.5 27.5t-24.5 68.5zM236 92q0 51 38 87t95 36q56 0 94.5 -31.5t38.5 -85.5t-37.5 -86t-93.5 -32q-57 0 -96 30t-39 82z" />
<glyph unicode="@" horiz-adv-x="1517" d="M53 365q0 219 107 417q108 201 294 320t408 119q166 0 307 -78q138 -80 215.5 -215.5t77.5 -300.5q0 -152 -82.5 -297t-230.5 -256q-125 -94 -209 -94q-28 0 -38.5 21.5t-10.5 72.5q0 103 49 309q-119 -224 -209 -311q-92 -92 -190 -92q-90 0 -139.5 65.5t-49.5 183.5 q0 141 78 297q79 157 206 256t263 99q43 0 70 -18.5t47 -61.5l10 41l188 35l-47 -201q-86 -392 -86 -488q0 -34 27 -34q54 0 125 71q72 73 119 183t47 217q0 146 -70 268q-71 124 -195 196t-272 72q-220 0 -375 -119q-154 -115 -236.5 -300t-82.5 -388q0 -178 76 -309 q75 -136 215.5 -209.5t328.5 -73.5q182 0 322 60.5t274 195.5l37 -45q-139 -145 -292.5 -207.5t-358.5 -62.5q-212 0 -377 80q-164 82 -252 232t-88 350zM535 252q0 -160 102 -160q40 0 129 109q93 115 159 259.5t66 252.5q0 43 -26 74.5t-62 31.5q-97 0 -181 -86.5 t-140 -238.5q-47 -133 -47 -242z" />
<glyph unicode="A" horiz-adv-x="1230" d="M-41 0v59l53 -4h8q42 0 68 39q37 57 62 119l428 1030h53l432 -1034q25 -67 59 -117q27 -37 72 -37h10l68 4v-59h-543v59l100 -4q6 -1 12 -1q50 0 50 50q0 34 -21 80l-100 242h-477l-94 -229q-29 -69 -29 -103q0 -41 39 -41h6l98 6v-59h-354zM317 483h428l-215 516z" />
<glyph unicode="B" horiz-adv-x="1173" d="M102 0v59l103 -4q37 0 37 45v1024q0 15 -9.5 28t-25.5 13l-105 -4v62h568q174 0 264 -73.5t90 -219.5q0 -108 -76.5 -183t-206.5 -98q97 0 177 -41q81 -42 127.5 -114.5t46.5 -161.5q0 -332 -453 -332h-537zM432 84q0 -27 29 -27h143q131 0 210 74t79 201q0 280 -250 280 h-211v-528zM432 670h156q241 0 241 246v12q-6 237 -254 237h-118q-22 0 -25 -24v-471z" />
<glyph unicode="C" horiz-adv-x="1243" d="M92 604q0 301 163 470t452 169q69 0 117 -10.5t132 -38.5q106 -39 177 -39q-9 -65 -9 -154q0 -52 2 -75q3 -35 7 -39h-50q-20 116 -133 210.5t-254 94.5q-182 0 -288.5 -161t-106.5 -427q0 -248 111.5 -408.5t294.5 -160.5q141 0 249.5 86.5t137.5 220.5h57 q-12 -95 -12 -174q0 -58 6 -96h-12q-52 0 -164 -37q-163 -55 -273 -55q-187 0 -319 75q-137 75 -211 216.5t-74 332.5z" />
<glyph unicode="D" horiz-adv-x="1275" d="M102 0v59l88 -4q31 0 31 45v1022q0 19 -10.5 31t-28.5 12l-80 -4v62h461q331 0 486 -144.5t155 -466.5q0 -612 -616 -612h-486zM412 84q0 -27 24 -27h92q172 0 275 56q101 54 146.5 173.5t45.5 323.5q0 208 -45 324q-45 120 -147.5 175.5t-274.5 55.5h-92q-24 0 -24 -26 v-1055z" />
<glyph unicode="E" horiz-adv-x="1153" d="M102 0v61l82 -6q37 0 37 45v1022q0 19 -11.5 31.5t-29.5 11.5l-78 -4v62h865q30 0 34 2v-318h-55q0 136 -68.5 197t-222.5 61h-219q-24 0 -24 -28v-471h192q70 0 113 55.5t43 150.5h55v-473h-55q0 89 -46 149t-110 60h-192v-524q0 -27 24 -27h287q139 0 212 80t73 230h55 v-373q-47 6 -180 6h-781z" />
<glyph unicode="F" horiz-adv-x="1083" d="M102 0v61l82 -6q37 0 37 45v1022q0 43 -35 43h-4l-80 -4v62h889q27 0 31 2v-318h-55q0 135 -69.5 196.5t-221.5 61.5h-240q-24 0 -24 -26v-494h153q74 0 118 56.5t44 152.5h55v-471h-55q0 92 -45 148.5t-117 56.5h-153v-490q0 -19 11 -31t28 -12l106 6v-61h-455z" />
<glyph unicode="G" horiz-adv-x="1323" d="M92 604q0 313 157.5 476t452.5 163q157 0 314 -59q75 -29 109 -29h8q-9 -41 -9 -141q0 -28 9 -127h-82q2 6 2 31q0 130 -91.5 202t-265.5 72q-182 0 -288.5 -153t-106.5 -435q3 -569 406 -569q94 0 151 20t111 74v328q0 45 -35 45h-4l-121 -4v59h473v-59l-84 4 q-18 0 -28.5 -12t-10.5 -31v-387q-6 2 -26 2q-44 0 -129 -33q-100 -35 -163.5 -48t-154.5 -13q-277 0 -435.5 161t-158.5 463z" />
<glyph unicode="H" horiz-adv-x="1425" d="M102 0v59l80 -4q39 0 39 45v1022q0 23 -9.5 33.5t-29.5 9.5l-80 -4v62h451v-62l-100 4h-4q-37 0 -37 -43v-463h602v463q0 23 -9.5 33.5t-29.5 9.5l-101 -4v62h449v-62l-80 4h-4q-35 0 -35 -43v-1022q0 -45 39 -45l80 4v-59h-449v59l101 -4q39 0 39 45v502h-602v-502 q0 -45 41 -45l100 4v-59h-451z" />
<glyph unicode="I" horiz-adv-x="634" d="M102 0v59l80 -4q39 0 39 45v1022q0 20 -10.5 32t-28.5 11l-80 -4v62h430v-62l-79 4h-4q-17 0 -27 -12t-10 -31v-1022q0 -45 41 -45l79 4v-59h-430z" />
<glyph unicode="J" horiz-adv-x="923" d="M49 -2v354h74q0 -84 20.5 -153.5t71 -117.5t123.5 -48q99 0 141.5 76t42.5 258v755q0 19 -11 31.5t-28 11.5l-141 -4v62h489v-62l-77 4h-4q-17 0 -27 -11.5t-10 -29.5v-757q0 -387 -342 -387q-64 0 -166 18q-65 12 -84 12h-17q-43 0 -55 -12z" />
<glyph unicode="K" horiz-adv-x="1263" d="M102 0v59l80 -4q39 0 39 45v1022q0 21 -10.5 32.5t-28.5 10.5l-80 -4v62h451v-62l-100 4q-41 0 -41 -45v-551l440 523q35 41 35 55q0 18 -21 18l-86 -4v62h365v-62l-70 4q-34 2 -61 -11t-58 -48l-313 -358l490 -664q23 -29 49 -29q32 0 69 6v-61h-485v61l111 -6 q34 0 34 23q0 11 -10 28l-375 506l-114 -133v-379q0 -45 41 -45l100 4v-59h-451z" />
<glyph unicode="L" horiz-adv-x="1052" d="M102 0v61l88 -6q31 0 31 45v1022q0 19 -11 31.5t-28 11.5l-80 -4v62h451v-62l-100 4h-4q-17 0 -27 -12t-10 -31v-1038q0 -27 24 -27h232q141 0 213.5 75t72.5 218h54v-356q-38 6 -254 6h-652z" />
<glyph unicode="M" horiz-adv-x="1757" d="M92 0v59l80 -4q41 0 41 45v1053q0 15 -20 12l-87 -4v62h316l477 -992l449 992h297v-62l-70 4h-4q-17 0 -27 -11.5t-10 -29.5v-1024q0 -45 41 -45l80 4v-59h-451v59l101 -4q41 0 41 45v963l-488 -1083h-49l-526 1099v-979q0 -45 39 -45l100 4v-59h-330z" />
<glyph unicode="N" horiz-adv-x="1355" d="M92 0v59l80 -4q41 0 41 45v1022q0 19 -11.5 31.5t-29.5 11.5l-80 -4v62h318l665 -906v807q0 41 -35 41h-6l-100 -4v62h330v-62l-80 4h-4q-35 0 -35 -43v-1134h-62l-800 1087v-975q0 -45 39 -45l100 4v-59h-330z" />
<glyph unicode="O" horiz-adv-x="1372" d="M92 612q0 304 155.5 467.5t438.5 163.5q284 0 439 -165.5t155 -465.5t-156 -466t-438 -166t-438 166t-156 466zM301 612q0 -305 92.5 -441t292.5 -136t292.5 136t92.5 441q0 304 -92.5 440t-292.5 136t-292.5 -136t-92.5 -440z" />
<glyph unicode="P" horiz-adv-x="1071" d="M102 0v59l80 -4q39 0 39 45v1020q0 25 -10.5 35.5t-36.5 9.5l-72 -4v62h482q213 0 314 -81t101 -249q0 -162 -100.5 -258t-271.5 -96h-215v-439q0 -45 41 -45l100 4v-59h-451zM412 596h172q94 0 156.5 84t62.5 213q0 123 -68.5 197.5t-183.5 74.5h-115q-8 0 -16 -7 t-8 -17v-545z" />
<glyph unicode="Q" horiz-adv-x="1372" d="M92 612q0 304 155.5 467.5t438.5 163.5q284 0 439 -165.5t155 -465.5t-156 -466t-438 -166t-438 166t-156 466zM301 612q0 -305 92.5 -441t292.5 -136t292.5 136t92.5 441q0 304 -92.5 440t-292.5 136t-292.5 -136t-92.5 -440zM559 0l127 -20q47 -11 88.5 -36t70 -54 t59.5 -61.5t56 -59t59.5 -46t70.5 -21.5q5 -1 11 -1q32 0 77 12l18 -53q-96 -57 -217 -57q-36 0 -71 18t-74.5 59t-74 82.5t-93 112.5t-107.5 125z" />
<glyph unicode="R" horiz-adv-x="1189" d="M102 0v59l80 -4q39 0 39 45v1022q0 20 -11.5 32t-33.5 11l-74 -4v62h461q227 0 329.5 -77t102.5 -249q0 -103 -68 -180.5t-182 -108.5q65 0 129 -43q67 -45 108.5 -127.5t41.5 -187.5q0 -69 16 -129t43 -64q16 -4 29 -4q26 0 39 8v-61h-279q-25 55 -28 135q-4 70 -4 78 v68q0 148 -96 226.5t-246 78.5h-86v-486q0 -45 41 -45l100 4v-59h-451zM412 641h190q94 0 147.5 67.5t53.5 188.5q0 140 -58 204t-182 64h-127q-24 0 -24 -20v-504z" />
<glyph unicode="S" horiz-adv-x="1011" d="M98 416h52q47 -379 376 -379q102 0 164 68.5t62 177.5q0 154 -203 237l-209 84q-222 87 -225 299q0 91 43 170q44 80 130.5 125t205.5 45q115 0 264 -59q37 -13 55 -13q38 0 59 9q-6 -50 -6 -154q0 -70 2 -88q4 -31 11 -49h-54q0 132 -86.5 215.5t-218.5 83.5 q-107 0 -172 -59t-65 -162q0 -67 46.5 -121.5t129.5 -87.5l188 -76q156 -63 222.5 -140t66.5 -198q0 -108 -51 -188q-52 -83 -141.5 -129.5t-194.5 -46.5q-126 0 -211 26q-112 31 -162 31q-11 0 -25 -2t-27.5 -4.5t-17.5 -3.5q9 44 9 170q0 159 -17 219z" />
<glyph unicode="T" horiz-adv-x="1083" d="M31 909v320q36 -4 82 -4h858q62 0 82 4v-320h-54q0 135 -58.5 196.5t-192.5 61.5h-86q-22 0 -25 -22v-1045q0 -45 41 -45l108 4v-59h-489v59l111 -4q18 0 28 15t10 36v1037q0 24 -24 24h-84q-134 0 -194 -62t-60 -196h-53z" />
<glyph unicode="U" horiz-adv-x="1333" d="M72 1161v62h448v-62l-100 4h-4q-17 0 -27 -11.5t-10 -29.5v-716q0 -172 95.5 -268.5t266.5 -96.5q151 0 250 104t99 259v716q0 21 -10 32.5t-27 10.5l-101 -4v62h330v-62l-80 4h-4q-17 0 -27 -11.5t-10 -29.5v-737q0 -173 -128 -290t-328 -117q-517 0 -517 434v708 q0 19 -10.5 31.5t-27.5 11.5z" />
<glyph unicode="V" horiz-adv-x="1196" d="M-10 1161v62h440v-62l-108 4q-10 0 -16.5 -9t-6.5 -21q0 -3 4 -19l371 -852l356 830q14 35 14 49q0 22 -24 22l-105 -4v62h322v-62l-74 4q-15 3 -22 -8q-7 -7 -21 -39l-487 -1126h-53l-486 1126q-21 47 -47 47z" />
<glyph unicode="W" horiz-adv-x="1810" d="M-10 1161v62h442v-62l-108 4q-27 0 -27 -22l6 -23l305 -803l293 906h125l375 -930l266 831l4 17q0 27 -26 24l-107 -4v62h313v-62l-61 4h-5q-34 0 -46 -43l-371 -1142h-33l-422 1062l-348 -1062h-39l-432 1140q-15 45 -43 45z" />
<glyph unicode="X" horiz-adv-x="1159" d="M61 0v61l74 -4q44 0 70 45l315 504l-309 520q-20 39 -66 39l-65 -4v62h467v-62l-86 4h-4q-14 0 -22.5 -7t-8.5 -17t6 -19l223 -383l244 385q10 17 10 25q0 19 -26 16l-88 -4v62h311v-62l-64 4q-36 0 -63 -41l-283 -452l346 -582q19 -35 56 -35h6l80 6v-61h-482v61l101 -6 h4q20 0 20 19q0 15 -10 28l-258 435l-276 -441q-7 -14 -7 -22t6 -14t13 -5l92 6v-61h-326z" />
<glyph unicode="Y" horiz-adv-x="1038" d="M-10 1161v62h452v-62l-108 4h-2q-23 0 -23 -20q0 -12 10 -29l281 -467l268 475q6 9 6 21q0 20 -20 20l-106 -4v62h311v-62l-62 4q-33 0 -57 -43l-299 -534v-490q0 -43 41 -43l98 4v-59h-469v59l101 -4q39 0 39 45v439l-355 587q-20 39 -49 39z" />
<glyph unicode="Z" horiz-adv-x="1048" d="M70 0v55l657 1110h-311q-148 0 -218.5 -62.5t-70.5 -195.5h-55v322l104 -2q98 -4 119 -4h655v-49l-661 -1119h356q141 0 224 77t83 210h56l-17 -350q-21 8 -231 8h-690z" />
<glyph unicode="[" horiz-adv-x="524" d="M94 -301v1683h363v-55h-213v-1573h213v-55h-363z" />
<glyph unicode="\" horiz-adv-x="507" d="M-16 1282l79 18l449 -1288l-82 -22z" />
<glyph unicode="]" horiz-adv-x="524" d="M70 -246h213v1573h-213v55h362v-1683h-362v55z" />
<glyph unicode="^" horiz-adv-x="942" d="M37 657l412 689h47l409 -689h-96l-297 502l-41 86l-39 -86l-301 -502h-94z" />
<glyph unicode="_" horiz-adv-x="1009" d="M0 -293h1010v-82h-1010v82z" />
<glyph unicode="`" horiz-adv-x="565" d="M72 1284q0 13 41.5 33t74.5 20q22 0 33 -8q28 -28 41 -43l195 -213q37 -40 37 -47q0 -16 -27 -16q-17 0 -41 18l-334 229q-20 14 -20 27z" />
<glyph unicode="a" horiz-adv-x="921" d="M55 211q0 158 132 232.5t415 74.5v129q0 96 -44.5 137t-145.5 41q-156 0 -156 -86q0 -14 10 -37q8 -19 8 -40q0 -34 -21.5 -52t-57.5 -18q-42 0 -66.5 26.5t-24.5 69.5q0 87 90.5 140t241.5 53q342 0 342 -289v-504q0 -39 27 -39l76 4v-53h-291q8 36 8 76l4 80 q-83 -176 -285 -176q-262 0 -262 231zM242 227q0 -91 34 -135q30 -39 89 -40q7 0 14 1q90 0 153.5 80t69.5 199v131q-191 0 -275.5 -55.5t-84.5 -180.5z" />
<glyph unicode="b" horiz-adv-x="985" d="M43 1444v51h279v-795q76 181 268 181q354 0 354 -453q0 -448 -389 -448q-94 0 -146 29t-104 97q-9 19 -37 19t-43 -37q-14 -35 -14 -98h-68v1417q0 41 -26 41zM326 377q0 -342 229 -342q80 0 123 37q80 65 80 356q0 224 -35 311q-38 86 -156 86q-114 0 -177.5 -96.5 t-63.5 -265.5v-86z" />
<glyph unicode="c" horiz-adv-x="870" d="M74 422q0 206 109 332.5t292 126.5q85 0 158 -27q73 -28 116.5 -77t43.5 -105q0 -45 -25 -74t-74 -29q-71 0 -71 62q0 20 8 41q10 27 10 47q0 49 -45.5 77.5t-114.5 28.5q-109 0 -163 -89t-54 -292q0 -409 232 -409q103 0 178.5 54t107.5 153l52 -25q-85 -237 -349 -237 q-192 0 -301.5 117.5t-109.5 324.5z" />
<glyph unicode="d" horiz-adv-x="1015" d="M72 428q0 223 97.5 338t289.5 115q91 0 152.5 -46t82.5 -122v694q0 41 -26 41l-95 -4v51h299v-1407q0 -39 27 -39l76 4v-53h-295q4 20 4 33v45q0 31 2 41t2 18q-52 -157 -227 -157q-207 0 -298 108t-91 340zM260 428q0 -146 19 -233q17 -85 60 -122.5t122 -37.5 q123 0 176 81t53 261v86q0 175 -58 268.5t-173 93.5q-107 0 -153 -99t-46 -298z" />
<glyph unicode="e" horiz-adv-x="919" d="M72 428q0 223 104.5 338t306.5 115q162 0 261.5 -104t103.5 -283v-60h-590q0 -188 65 -287t193 -100q99 0 171 49.5t106 128.5l47 -35q-41 -97 -137.5 -153.5t-215.5 -56.5q-415 0 -415 448zM260 485h373q41 0 41 68q0 141 -44.5 206.5t-146.5 65.5q-112 0 -167.5 -91 t-55.5 -249z" />
<glyph unicode="f" horiz-adv-x="606" d="M72 0v53l75 -4q27 0 27 39v721h-80v51h80v135q0 512 356 512q98 0 170 -62t72 -149q0 -45 -25 -72.5t-73 -27.5q-72 0 -72 59q0 20 8 41q11 29 11 50q0 46 -28 76t-77 30q-81 0 -130.5 -57.5t-49.5 -188.5q0 -58 6 -135q6 -108 6 -151v-60h219v-51h-217v-721 q0 -39 27 -39l135 4v-53h-440z" />
<glyph unicode="g" horiz-adv-x="942" d="M66 -229q0 157 184 239q-152 27 -152 135q0 37 20.5 65.5t76.5 72.5l55 45q-133 89 -133 245q0 136 97 222t251 86q167 0 258.5 -83t91.5 -225q0 -136 -96.5 -220.5t-253.5 -84.5q-84 0 -160 31q-69 -43 -69 -90q0 -76 114 -76h273q155 0 230 -67t75 -218 q0 -158 -134 -254t-354 -96q-181 0 -277.5 70t-96.5 203zM166 -225q0 -103 70 -163.5t202 -60.5q168 0 261.5 76.5t93.5 206.5q0 85 -48.5 125.5t-152.5 40.5h-205q-87 0 -154 -69t-67 -156zM299 573q0 -71 5.5 -114t23 -78.5t50.5 -50.5t87 -15q95 0 131.5 57.5t36.5 200.5 q0 138 -37.5 195t-130.5 57q-94 0 -130 -55t-36 -197zM631 854q37 -15 67 -15q22 0 41 8q45 18 45 71q0 21 -28 40q-31 19 -31 52q0 80 84 80q92 0 92 -105q0 -169 -194 -190z" />
<glyph unicode="h" horiz-adv-x="1075" d="M72 0v53l75 -4q27 6 27 39v1317q0 43 -27 43l-75 -4v51h278v-819q43 97 123 151t184 54q146 0 210.5 -68.5t64.5 -222.5v-502q0 -39 26 -39l76 4v-53h-399v53l94 -4q27 6 27 39v465q0 157 -29 213q-30 49 -109 49q-117 0 -189.5 -99.5t-78.5 -266.5v-361q0 -39 27 -39 l94 4v-53h-399z" />
<glyph unicode="i" horiz-adv-x="522" d="M72 0v53l75 -4q27 0 27 39v682q0 35 -24 41l-76 -4v53h276v-772q0 -42 27 -39l74 4v-53h-379zM137 1221q0 43 31 69.5t80 26.5q50 0 81 -26.5t31 -69.5q0 -47 -30 -73t-82 -26q-50 0 -80.5 26t-30.5 73z" />
<glyph unicode="j" horiz-adv-x="514" d="M-150 -360q0 41 27 65.5t70 24.5q29 0 50 -14t21 -44q0 -11 -6 -32t-6 -31q0 -51 64 -51q109 0 109 147q0 11 -1 23q-4 118 -4 151v891q0 41 -27 41l-84 -4v53h287v-868q0 -490 -293 -490q-92 0 -149.5 40t-57.5 98zM141 1221q0 44 30.5 70t80.5 26t81.5 -26.5 t31.5 -69.5q0 -46 -31 -72.5t-82 -26.5t-81 26t-30 73z" />
<glyph unicode="k" horiz-adv-x="1046" d="M72 0v53l75 -4q27 6 27 39v1317q0 43 -24 43l-76 -4v51h276v-1010l334 287q12 12 12 27q0 6 -5.5 10.5t-12.5 3.5l-88 -4v51h332v-51l-74 4q-27 0 -64 -29l-239 -204l358 -494q26 -37 55 -37l74 4v-53h-440v53l92 -4h4q13 0 17.5 9.5t-3.5 19.5l-284 393l-68 -57v-326 q0 -39 27 -39l94 4v-53h-399z" />
<glyph unicode="l" horiz-adv-x="522" d="M72 0v53l75 -4q27 6 27 39v1319q0 34 -24 43l-76 -4v51h276v-1409q0 -39 27 -39l74 4v-53h-379z" />
<glyph unicode="m" horiz-adv-x="1640" d="M72 0v53l75 -4q27 6 27 39v682q0 38 -27 41l-75 -4v53h290q-10 -33 -10 -69v-113q31 93 110 148t187 55q122 0 186.5 -51.5t82.5 -180.5q35 112 115 172t190 60q146 0 210 -68.5t64 -222.5v-502q0 -39 27 -39l75 4v-53h-399v53l94 -4q27 6 27 39v465q0 167 -31 215 q-30 47 -106 47q-109 0 -181.5 -99t-78.5 -259v-369q0 -39 26 -39l97 4v-53h-420v53l94 -4q27 6 27 39v469q0 153 -27.5 204.5t-118.5 51.5q-104 0 -171.5 -93.5t-78.5 -246.5l-2 -385q0 -39 27 -39l94 4v-53h-399z" />
<glyph unicode="n" horiz-adv-x="1075" d="M72 0v53l75 -4q27 6 27 39v682q0 35 -27 41l-75 -4v53h288q-10 -33 -10 -72v-112q43 97 123 151t184 54q146 0 210.5 -68.5t64.5 -222.5v-502q0 -39 26 -39l76 4v-53h-399v53l94 -4q27 6 27 39v465q0 147 -27.5 204.5t-110.5 57.5q-117 0 -189.5 -99.5t-78.5 -266.5v-361 q0 -39 27 -39l94 4v-53h-399z" />
<glyph unicode="o" horiz-adv-x="966" d="M72 432q0 212 105.5 330.5t305.5 118.5q198 0 305 -117t107 -322q-6 -462 -418 -462q-195 0 -300 118.5t-105 333.5zM258 428q0 -208 52 -300.5t173 -92.5t173.5 92.5t52.5 300.5q0 210 -52.5 303.5t-173.5 93.5t-173 -93t-52 -304z" />
<glyph unicode="p" horiz-adv-x="1011" d="M41 807v53h285q-9 -53 -9 -104v-60q30 89 99.5 137t171.5 48q176 0 264 -115t88 -338q0 -226 -95.5 -337t-293.5 -111q-175 0 -234 108v-487q0 -41 27 -41l127 4v-53h-422v53l66 -4q26 3 26 41v1169q0 41 -26 41zM322 377q0 -342 229 -342q77 0 123 37q80 65 80 356 q0 156 -15 238q-15 84 -56.5 121.5t-117.5 37.5q-114 0 -178.5 -98t-64.5 -264v-86z" />
<glyph unicode="q" horiz-adv-x="1003" d="M72 428q0 453 387 453q86 0 140.5 -25.5t98.5 -87.5q12 -16 20.5 -22.5t20.5 -6.5q64 0 64 121h67v-1259q0 -42 27 -39l66 2v-53h-410v53l115 -2q26 3 26 39v526q-24 -65 -87 -106t-152 -41q-208 0 -295.5 105.5t-87.5 342.5zM260 428q0 -153 19 -237t62.5 -120 t123.5 -36q101 0 163 99t62 245v84q0 74 -12 137t-37 114.5t-68 81t-100 29.5q-113 0 -163 -91.5t-50 -305.5z" />
<glyph unicode="r" horiz-adv-x="784" d="M72 807v53h288q-12 -32 -12 -94v-100q83 215 240 215q78 0 123 -44.5t45 -115.5q0 -46 -23.5 -71t-62.5 -25q-32 0 -54 16.5t-22 46.5q0 23 8 47t8 43q0 42 -47 45q-63 0 -110 -59q-45 -59 -72.5 -147.5t-32.5 -174.5v-354q0 -39 27 -39l125 4v-53h-420v53l65 -4 q27 0 27 39v682q0 41 -27 41z" />
<glyph unicode="s" horiz-adv-x="841" d="M90 20l10 271l54 4q0 -110 86 -185t211 -75q81 0 126.5 41.5t45.5 113.5q0 58 -33.5 94.5t-110.5 59.5l-196 55q-83 25 -130 84t-47 144q0 114 84.5 184t229.5 70q56 0 151 -27q65 -18 95 -18q28 0 57 16l-12 -234h-45q0 85 -66.5 146t-173.5 61q-77 0 -121.5 -40.5 t-44.5 -104.5q0 -100 127 -135l197 -56q102 -29 146 -83.5t44 -147.5q0 -131 -92.5 -204.5t-247.5 -73.5q-68 0 -229 45q-27 8 -55 8q-40 0 -60 -13z" />
<glyph unicode="t" horiz-adv-x="641" d="M51 809v51q83 0 126.5 17.5t68 59.5t47.5 132h57v-209h225v-51h-225v-629q0 -77 18 -105t66 -28q32 0 64.5 24t42.5 58l43 -27q-40 -114 -217 -114q-104 0 -148.5 49t-44.5 160v612h-123z" />
<glyph unicode="u" horiz-adv-x="1073" d="M41 807v53h276v-557q0 -143 26 -199.5t99 -56.5q118 0 193.5 89.5t85.5 244.5l2 387q0 43 -25 43l-96 -4v53h299v-772q0 -39 27 -39l73 4v-53h-290q10 27 10 147v27q-89 -194 -322 -194q-137 0 -197.5 75.5t-60.5 247.5v467q0 41 -26 41z" />
<glyph unicode="v" horiz-adv-x="909" d="M-27 807v53h416v-53l-90 4q-15 0 -26 -12.5t-5 -28.5l224 -541l217 549q4 12 4 17q0 19 -21 16l-90 -4v53h289v-53l-68 4q-38 0 -47 -31l-323 -790h-56l-315 794q-12 27 -41 27z" />
<glyph unicode="w" horiz-adv-x="1484" d="M-27 807v53h437v-53l-91 4h-4q-18 0 -25 -11.5t-1 -29.5l192 -543l281 643h43l272 -630l195 536l4 17q0 21 -27 18l-108 -4v53h325v-53l-84 4q-31 0 -43 -35l-305 -796h-45l-274 638l-283 -638h-41l-289 804q-12 27 -34 27z" />
<glyph unicode="x" horiz-adv-x="995" d="M10 0v53l88 -4q22 0 43 27l256 346l-256 362q-15 27 -39 27l-79 -4v53h440v-53l-94 4q-15 0 -21.5 -7.5t2.5 -19.5l176 -249l183 241q6 9 6 19q0 16 -19 16l-88 -4v53h305v-53l-86 4q-27 0 -51 -31l-215 -295l289 -409q18 -27 39 -27l90 4v-53h-453v53l101 -6h2 q11 0 15 10.5t-3 18.5l-209 297l-221 -295l-4 -8q0 -21 26 -21l89 4v-53h-312z" />
<glyph unicode="y" horiz-adv-x="993" d="M-27 807v53h449v-53l-92 4q-14 0 -22.5 -11.5t-2.5 -23.5l250 -549l231 553q2 2 2 13q0 18 -22 18l-96 -4v53h317v-53l-88 4q-34 0 -51 -39l-432 -1042q-49 -120 -104 -169.5t-138 -49.5q-56 0 -93.5 26.5t-41.5 73.5q0 49 23 76.5t57 27.5q50 0 78 -49q17 -26 28 -33 q12 -4 23 -4q26 0 51 24.5t43 70.5l119 284l-355 776q-12 27 -32 27z" />
<glyph unicode="z" horiz-adv-x="903" d="M70 -4v41l510 772h-201q-102 0 -164.5 -61t-79.5 -175h-43l19 291q24 0 61 -2q35 -2 135 -2h488v-39l-504 -770h217q130 0 197 59t67 175h43v-285h-532l-172 -2q-12 -2 -41 -2z" />
<glyph unicode="{" horiz-adv-x="573" d="M61 526v41q82 12 115 49t33 117v459q0 110 43.5 150t159.5 40h69v-61h-55q-80 0 -80 -115v-473q0 -95 -40 -130t-156 -56q116 -26 156 -61t40 -126v-483q0 -115 80 -115h55v-61h-69q-120 0 -161.5 39t-41.5 151v469q0 63 -12.5 93t-40.5 44t-95 29z" />
<glyph unicode="|" horiz-adv-x="475" d="M201 -489v1984h73v-1984h-73z" />
<glyph unicode="}" horiz-adv-x="593" d="M113 -238h55q80 0 80 115v483q0 91 40 126t156 61q-116 21 -156 56t-40 130v473q0 115 -80 115h-55v61h69q116 0 159.5 -40t43.5 -150v-459q0 -80 32.5 -117t114.5 -49v-41q-41 -9 -63 -16t-41 -18t-27 -28.5t-12 -41.5t-4 -62v-469q0 -112 -41.5 -151t-161.5 -39h-69v61 z" />
<glyph unicode="~" horiz-adv-x="942" d="M45 522q89 150 223 150q42 0 87 -15.5t118 -52.5q74 -36 114.5 -50.5t78.5 -14.5q51 0 90 26.5t86 93.5l57 -59q-44 -75 -105.5 -117.5t-127.5 -42.5q-40 0 -78 13.5t-125 54.5q-127 65 -195 65q-55 0 -88 -21.5t-80 -88.5z" />
<glyph unicode="&#xa2;" horiz-adv-x="806" d="M86 590q0 168 91 264.5t245 101.5v369h76v-373q93 -12 152 -58.5t59 -107.5q0 -38 -24 -64t-67 -26q-33 0 -53 15.5t-20 44.5q0 16 8 35t8 36q0 37 -34 58.5t-85 21.5q-84 0 -126 -70t-42 -227q0 -167 47.5 -245t141.5 -78q158 0 225 168l45 -27q-56 -167 -235 -188v-435 h-76v431q-156 5 -246 97t-90 257z" />
<glyph unicode="&#xa3;" horiz-adv-x="1038" d="M57 2q82 51 131.5 137.5t49.5 179.5v308h-164v47h164v166q0 211 85 307t275 96q109 0 182.5 -51.5t73.5 -126.5q0 -32 -26 -57t-58 -25q-33 0 -58.5 20.5t-25.5 49.5q0 18 8 37t8 30q0 76 -116 76q-83 0 -135 -54.5t-52 -144.5q0 -3 13 -110q5 -34 12 -90q5 -42 10 -123 h244v-47h-244v-164q0 -87 -35 -168t-92 -145h324q107 0 166 18q56 17 79 57t23 119h51l-20 -350l-68 2q-70 4 -92 4h-524q-62 0 -185 -6z" />
<glyph unicode="&#xa5;" horiz-adv-x="1038" d="M-10 1161v62h452v-62l-108 4h-2q-23 0 -23 -20q0 -12 10 -29l281 -467l268 475q6 9 6 21q0 20 -20 20l-106 -4v62h311v-62l-62 4q-33 0 -57 -43l-238 -424h209v-59h-241l-29 -51v-115h270v-59h-270v-316q0 -43 41 -43l98 4v-59h-469v59l101 -4q39 0 39 45v314h-271v59 h271v66l-62 100h-209v59h174l-258 428q-20 39 -49 39z" />
<glyph unicode="&#xa8;" horiz-adv-x="763" d="M72 1219q0 43 31.5 71.5t78.5 28.5q45 0 78 -29t33 -71q0 -43 -31 -71t-80 -28t-79.5 28t-30.5 71zM471 1219q0 43 32 71.5t79 28.5q45 0 77.5 -29t32.5 -71q0 -43 -30.5 -71t-79.5 -28t-80 28t-31 71z" />
<glyph unicode="&#xa9;" horiz-adv-x="1480" d="M109 610q0 171 84 318q85 147 230 231t316 84t318 -84q147 -87 231 -232.5t84 -316.5q0 -170 -84 -317q-86 -147 -232 -230t-317 -83q-172 0 -317 83q-146 85 -229.5 230t-83.5 317zM174 610q0 -156 74 -286q74 -132 203 -207.5t286 -75.5q159 0 287 76q130 76 204.5 206 t74.5 287q0 156 -74 289q-76 132 -205.5 207.5t-286.5 75.5q-158 0 -286 -76q-129 -75 -203 -206.5t-74 -289.5zM395 612q0 167 94.5 260t264.5 93q73 0 149 -29q53 -21 96 -21q-4 -66 -4 -84q0 -59 4 -63h-38q-13 63 -70.5 109.5t-120.5 46.5q-95 0 -145 -79t-50 -233 q0 -147 51 -223t148 -76q72 0 124.5 43.5t66.5 112.5h45l-6 -96q0 -18 4 -54q-42 0 -113 -22q-92 -29 -147 -29q-164 0 -258.5 92t-94.5 252z" />
<glyph unicode="&#xab;" horiz-adv-x="876" d="M51 383l305 350h74l-201 -350l201 -350h-74zM395 383l305 350h74l-201 -350l201 -350h-74z" />
<glyph unicode="&#xad;" d="M45 387v113h422v-113h-422z" />
<glyph unicode="&#xae;" horiz-adv-x="1007" d="M94 846q0 113 56 205q54 91 147.5 141.5t206.5 50.5t205 -51q95 -52 149.5 -143.5t54.5 -202.5q0 -113 -55 -201q-56 -91 -150 -142.5t-204 -51.5q-112 0 -207 53t-149 143t-54 199zM154 846q0 -155 101.5 -248.5t246.5 -93.5t247.5 94t102.5 248q0 156 -102.5 250 t-247.5 94t-246.5 -94t-101.5 -250zM309 649v37h25q12 0 12 14v301q0 15 -16 15h-21v37h209q158 0 158 -99q0 -44 -30 -72.5t-85 -39.5q49 0 87 -32t38 -81q0 -29 10.5 -40t30.5 -5v-35h-76q-84 0 -84 64v28q0 78 -80 78h-20v-119q0 -14 14 -14h35v-37h-207zM467 858h39 q24 0 37.5 22t13.5 60q0 76 -61 76h-19q-10 0 -10 -6v-152z" />
<glyph unicode="&#xb4;" horiz-adv-x="565" d="M72 1026q0 7 37 47l194 213q27 31 43 43q8 8 31 8q34 0 75.5 -20t41.5 -33q0 -12 -21 -27l-334 -229q-23 -14 -41 -18q-26 0 -26 16z" />
<glyph unicode="&#xb8;" horiz-adv-x="477" d="M72 -406l14 50q24 -27 72 -27t81 32t33 79q0 42 -69 79l-47 29q-23 16 -23 31t12 27l84 106h68l-55 -88q-13 -23 -13 -39q0 -12 15 -18q20 -8 47 -15q60 -13 87.5 -32t27.5 -58q0 -88 -50.5 -138t-142.5 -50t-141 32z" />
<glyph unicode="&#xbb;" horiz-adv-x="886" d="M102 33l201 350l-201 350h74l305 -350l-305 -350h-74zM455 33l200 350l-200 350h73l306 -350l-306 -350h-73z" />
<glyph unicode="&#x2c6;" horiz-adv-x="782" d="M72 1026q0 5 16 21q17 18 35 30q55 48 110 103l48 49l49 49q54 51 61 51q8 0 62 -51l49 -49l47 -49q55 -55 110 -103q24 -17 37 -30q15 -15 15 -21q0 -16 -19 -16q-16 0 -57 24l-244 152l-244 -152q-41 -24 -57 -24q-18 0 -18 16z" />
<glyph unicode="&#x2da;" horiz-adv-x="485" d="M72 1178q0 69 49 117t121 48t122 -48t50 -117t-50 -118.5t-122 -49.5q-69 0 -119.5 49.5t-50.5 118.5zM158 1178q0 -43 23 -69t61 -26t62 26t24 69q0 41 -24 66.5t-62 25.5t-61 -25.5t-23 -66.5z" />
<glyph unicode="&#x2dc;" horiz-adv-x="729" d="M72 1085q0 76 38 131.5t93 55.5q52 0 180 -45q125 -43 166 -43q29 0 48 24.5t19 61.5h41q0 -76 -38 -131.5t-93 -55.5q-52 0 -180 45q-119 43 -166 43q-29 0 -48 -24.5t-19 -61.5h-41z" />
<glyph unicode="&#x2000;" horiz-adv-x="753" />
<glyph unicode="&#x2001;" horiz-adv-x="1507" />
<glyph unicode="&#x2002;" horiz-adv-x="753" />
<glyph unicode="&#x2003;" horiz-adv-x="1507" />
<glyph unicode="&#x2004;" horiz-adv-x="502" />
<glyph unicode="&#x2005;" horiz-adv-x="376" />
<glyph unicode="&#x2006;" horiz-adv-x="251" />
<glyph unicode="&#x2007;" horiz-adv-x="251" />
<glyph unicode="&#x2008;" horiz-adv-x="188" />
<glyph unicode="&#x2009;" horiz-adv-x="301" />
<glyph unicode="&#x200a;" horiz-adv-x="83" />
<glyph unicode="&#x2010;" d="M45 387v113h422v-113h-422z" />
<glyph unicode="&#x2011;" d="M45 387v113h422v-113h-422z" />
<glyph unicode="&#x2012;" d="M45 387v113h422v-113h-422z" />
<glyph unicode="&#x2013;" horiz-adv-x="976" d="M37 391v80h903v-80h-903z" />
<glyph unicode="&#x2014;" horiz-adv-x="1626" d="M0 391v80h1626v-80h-1626z" />
<glyph unicode="&#x2018;" horiz-adv-x="450" d="M55 977q0 96 65 186.5t161 157.5l38 -23q-56 -51 -98.5 -120t-42.5 -115q0 -59 74 -59q65 0 65 -89q0 -43 -35.5 -75.5t-82.5 -32.5q-71 0 -107.5 43.5t-36.5 126.5z" />
<glyph unicode="&#x2019;" horiz-adv-x="450" d="M131 799q56 51 98.5 120t42.5 115q0 60 -73 60q-66 0 -66 88q0 43 36 75.5t83 32.5q143 0 143 -170q0 -96 -64.5 -186.5t-160.5 -157.5z" />
<glyph unicode="&#x201a;" horiz-adv-x="540" d="M209 -305q56 51 98.5 120t42.5 115q0 60 -74 60q-65 0 -65 88q0 43 36 75.5t83 32.5q143 0 143 -170q0 -96 -64.5 -186.5t-160.5 -157.5z" />
<glyph unicode="&#x201c;" horiz-adv-x="790" d="M55 979q0 96 65 186.5t161 157.5l38 -23q-56 -51 -98.5 -120t-42.5 -115q0 -59 74 -59q65 0 65 -88q0 -43 -35.5 -76t-82.5 -33q-71 0 -107.5 43.5t-36.5 126.5zM395 979q0 96 65 186.5t161 157.5l38 -23q-56 -51 -98.5 -120t-42.5 -115q0 -59 74 -59q65 0 65 -88 q0 -43 -35.5 -76t-82.5 -33q-71 0 -107.5 43.5t-36.5 126.5z" />
<glyph unicode="&#x201d;" horiz-adv-x="790" d="M131 799q56 51 98.5 120t42.5 115q0 60 -73 60q-66 0 -66 88q0 43 36 75.5t83 32.5q143 0 143 -170q0 -96 -64.5 -186.5t-160.5 -157.5zM471 799q56 51 98.5 120t42.5 115q0 60 -73 60q-66 0 -66 88q0 43 36 75.5t83 32.5q143 0 143 -170q0 -96 -64.5 -186.5 t-160.5 -157.5z" />
<glyph unicode="&#x201e;" horiz-adv-x="909" d="M209 -305q56 51 98.5 120t42.5 115q0 60 -74 60q-65 0 -65 88q0 43 36 75.5t83 32.5q143 0 143 -170q0 -96 -64.5 -186.5t-160.5 -157.5zM578 -305q56 51 98.5 120t42.5 115q0 60 -74 60q-65 0 -65 88q0 43 35.5 75.5t82.5 32.5q71 0 107.5 -43.5t36.5 -126.5 q0 -96 -65 -186.5t-161 -157.5z" />
<glyph unicode="&#x2022;" horiz-adv-x="960" d="M215 506q0 103 75.5 170t188.5 67t187.5 -66.5t74.5 -170.5q0 -103 -75.5 -170.5t-186.5 -67.5q-117 0 -190.5 66.5t-73.5 171.5z" />
<glyph unicode="&#x2026;" horiz-adv-x="1413" d="M123 96q0 53 37.5 86t95.5 33t95.5 -33t37.5 -86t-37.5 -84.5t-95.5 -31.5t-95.5 31.5t-37.5 84.5zM573 96q0 53 38 86t96 33t95.5 -33t37.5 -86t-37.5 -84.5t-95.5 -31.5t-96 31.5t-38 84.5zM1024 96q0 53 37.5 86t95.5 33t95.5 -33t37.5 -86t-37.5 -84.5t-95.5 -31.5 t-95.5 31.5t-37.5 84.5z" />
<glyph unicode="&#x202f;" horiz-adv-x="301" />
<glyph unicode="&#x2039;" horiz-adv-x="534" d="M53 383l305 350h74l-201 -350l201 -350h-74z" />
<glyph unicode="&#x203a;" horiz-adv-x="532" d="M102 33l201 350l-201 350h74l305 -350l-305 -350h-74z" />
<glyph unicode="&#x205f;" horiz-adv-x="376" />
<glyph unicode="&#x20ac;" horiz-adv-x="954" d="M4 444l21 84h69q-2 16 -2 76q0 58 2 74h-90l21 84h77q32 231 158.5 356t325.5 125q56 0 93 -10t107 -39q86 -39 142 -39q-8 -57 -8 -154q0 -52 2 -75q3 -36 6 -39h-49q-20 128 -102.5 216.5t-184.5 88.5q-111 0 -185 -115t-98 -315h475l-20 -84h-461q-2 -16 -2 -74 q0 -60 2 -76h481l-20 -84h-453q23 -190 101 -299.5t190 -109.5q105 0 184.5 86t102.5 221h57q-12 -94 -12 -174q0 -58 6 -96h-12q-30 0 -131 -37q-74 -29 -121.5 -42t-97.5 -13q-190 0 -314.5 122t-159.5 342h-100z" />
<glyph unicode="&#x2122;" horiz-adv-x="1552" d="M20 1071v152h574v-152h-39q0 58 -30 85.5t-95 27.5h-31q-12 0 -12 -10v-480q0 -22 21 -22l53 2v-39h-309v39l55 -2q8 0 13 7t5 17v475q0 13 -12 13h-29q-67 0 -97 -27.5t-30 -85.5h-37zM664 635v39l38 -2q21 0 21 22v484q0 6 -10 6l-43 -2v41h233l205 -408l192 408h209 v-41l-28 2q-10 1 -15.5 -4.5t-5.5 -16.5v-469q0 -22 21 -22l35 2v-39h-287v39l51 -2q20 0 20 22v426l-233 -495h-35l-264 528v-459q0 -22 20 -22l50 2v-39h-174z" />
<glyph unicode="&#x25fc;" horiz-adv-x="860" d="M0 0v860h860v-860h-860z" />
</font>
</defs>
</svg>
