<?xml version="1.0" standalone="no"?>
<!DOCTYPE svg PUBLIC "-//W3C//DTD SVG 1.1//EN" "http://www.w3.org/Graphics/SVG/1.1/DTD/svg11.dtd" >
<svg xmlns="http://www.w3.org/2000/svg" xmlns:xlink="http://www.w3.org/1999/xlink" version="1.1">
<metadata></metadata>
<defs>
<font id="unnamedium" horiz-adv-x="942" >
<font-face units-per-em="2048" ascent="1638" descent="-410" />
<missing-glyph horiz-adv-x="436" />
<glyph horiz-adv-x="0" />
<glyph horiz-adv-x="682" />
<glyph unicode=" "  horiz-adv-x="436" />
<glyph unicode="&#x09;" horiz-adv-x="436" />
<glyph unicode="&#xa0;" horiz-adv-x="436" />
<glyph unicode="!" horiz-adv-x="567" d="M160 115q0 56 45.5 94.5t111.5 38.5t111 -39.5t45 -95.5t-46 -94.5t-112 -38.5q-64 0 -109.5 39t-45.5 96zM188 1174q0 61 33 96t94 35q62 0 95.5 -35t33.5 -96q0 -54 -14 -134l-41 -237q-45 -226 -45 -354q0 -37 -27 -37q-28 0 -28 37q0 120 -47 354l-39 237 q-15 85 -15 134z" />
<glyph unicode="&#x22;" horiz-adv-x="530" d="M53 1214q0 44 23 70.5t61 26.5t61 -26.5t23 -70.5t-28 -198q-25 -125 -25 -139q0 -39 -31 -39t-31 39q0 19 -24 139q-29 160 -29 198zM307 1214q0 45 22.5 71t63.5 26q38 0 61 -26.5t23 -70.5t-28 -198q-27 -120 -27 -139q0 -39 -29 -39q-31 0 -31 39q0 19 -24 139 q-31 170 -31 198z" />
<glyph unicode="#" horiz-adv-x="1034" d="M37 395l22 88h201l105 344h-201l22 88h203l119 394h90l-121 -394h228l118 394h90l-118 -394h202l-22 -88h-207l-102 -344h202l-24 -88h-205l-123 -413h-90l125 413h-227l-123 -413h-90l125 413h-199zM348 483h230l102 344h-227z" />
<glyph unicode="$" horiz-adv-x="915" d="M162 274l8 218l57 2q0 -85 71.5 -141t172.5 -56q56 0 88.5 26.5t32.5 73.5q0 40 -24.5 64t-84.5 37l-123 34q-186 48 -186 207q0 98 64 159.5t180 68.5v358h84v-362q28 -2 82 -17q49 -14 82 -14q28 0 49 12l-10 -186h-50q0 64 -53.5 108.5t-142.5 44.5q-54 0 -84.5 -24.5 t-30.5 -65.5q0 -71 92 -92l119 -31q112 -28 155.5 -77.5t43.5 -137.5q0 -103 -67.5 -165.5t-184.5 -73.5v-439h-84v439q-39 3 -156 35q-34 6 -49 6q-33 0 -51 -11z" />
<glyph unicode="%" horiz-adv-x="1198" d="M37 956q0 129 75.5 208t204.5 79q131 0 206 -80t75 -207t-74.5 -205.5t-206.5 -78.5q-133 0 -206.5 78.5t-73.5 205.5zM117 14l874 1229l78 -49l-879 -1233zM217 958q0 -130 23 -188q21 -53 77 -53q57 0 78 55q23 58 23 186t-23 189q-21 53 -78 53q-56 0 -77 -55 q-23 -64 -23 -187zM600 264q0 129 76 208t205 79q132 0 206 -79.5t74 -207.5t-73.5 -206t-206.5 -78q-132 0 -206.5 79t-74.5 205zM782 266q0 -130 23 -188q21 -53 76 -53q56 0 77 55q23 58 23 186t-23 189q-21 53 -77 53q-55 0 -76 -55q-23 -61 -23 -187z" />
<glyph unicode="&#x26;" horiz-adv-x="1261" d="M57 285q0 135 84.5 230.5t264.5 168.5q-37 49 -60.5 84.5t-48.5 98t-25 118.5q0 108 86 182t220 74q124 0 190 -60.5t66 -152.5q0 -83 -50.5 -165t-142.5 -136l281 -369q36 98 36 226q0 28 -6 40.5t-10.5 13.5t-17.5 1l-86 -4v61h307v-59l-78 2q-11 0 -17 -1.5 t-12.5 -10.5t-7.5 -27q-4 -164 -63 -303l155 -203q32 -35 76 -33l94 5v-64h-366l-84 111q-138 -131 -363 -131q-99 0 -177 21.5t-122.5 53.5t-73.5 74.5t-39 79.5t-10 74zM279 332q0 -132 75 -206.5t189 -74.5q147 0 260 113l-363 473q-161 -98 -161 -305zM467 1034 q0 -14 3 -29t6.5 -28t11.5 -29.5t13 -27.5t16.5 -29t17 -26.5t18.5 -26.5t17.5 -23.5t18 -23t15.5 -19.5q72 36 117 109t45 145q0 65 -40.5 105t-121.5 40q-64 0 -100.5 -37t-36.5 -100z" />
<glyph unicode="'" horiz-adv-x="272" d="M53 1214q0 44 23 70.5t61 26.5t61 -26.5t23 -70.5t-28 -198q-25 -125 -25 -139q0 -39 -31 -39t-31 39q0 19 -24 139q-29 160 -29 198z" />
<glyph unicode="(" horiz-adv-x="540" d="M37 492q0 493 409 964h95q-108 -157 -185 -416.5t-77 -547.5q0 -300 76 -552.5t186 -412.5h-95q-409 465 -409 965z" />
<glyph unicode=")" horiz-adv-x="540" d="M0 -473q108 158 186 417.5t78 547.5q0 299 -77 551t-187 413h96q408 -464 408 -964q0 -495 -408 -965h-96z" />
<glyph unicode="*" horiz-adv-x="692" d="M41 1008q0 86 68 86q18 0 50.5 -28t65.5 -28q23 0 49 11q0 27 -14 49q-14 23 -57 40.5t-49 30.5q-15 27 -15 41q0 35 56 62q33 20 57 20q28 0 49 -37q8 -11 8 -24q0 -7 -6 -25t-6 -30q0 -21 16 -50q6 -15 33 -34q27 19 33 34q12 21 16 52q0 10 -6 28t-6 25q0 13 8 24 q21 37 49 37q22 0 58 -20q53 -27 53 -62q0 -17 -12 -41q-10 -18 -30 -24.5t-41 -15.5t-34 -31q-14 -20 -14 -49q26 -11 47 -11q34 0 66 28t51 28q38 0 52.5 -19t14.5 -67q0 -47 -15 -66.5t-52 -19.5q-24 -1 -39 13.5t-32 29t-46 14.5q-25 0 -49 -12q0 -23 16 -49 q12 -22 33 -30.5t41.5 -15.5t30.5 -26q14 -22 14 -41q0 -35 -53 -62q-38 -18 -60 -18q-28 0 -49 35q-6 12 -6 24q0 7 6 25q4 24 4 29q0 22 -16 51q-8 20 -33 35q-25 -15 -33 -35q-16 -29 -16 -49q0 -14 6 -29q6 -18 6 -27q0 -11 -8 -24q-21 -37 -49 -37q-18 0 -57 20 q-54 28 -54 64q0 13 13 39q14 22 33.5 27t38.5 11.5t34 33.5q9 21 12 49q-21 12 -47 12q-23 0 -40.5 -9t-26.5 -20t-21.5 -20t-27.5 -8q-38 0 -53 19t-15 67z" />
<glyph unicode="+" d="M41 526v99h377v374h108v-374h375v-99h-375v-376h-108v376h-377z" />
<glyph unicode="," horiz-adv-x="536" d="M113 90q0 55 39 92t98 37q83 0 128.5 -51t45.5 -139q0 -103 -70.5 -197.5t-177.5 -159.5l-39 31q56 45 96.5 109t40.5 116q0 60 -75 60q-43 0 -64.5 28t-21.5 74z" />
<glyph unicode="-" horiz-adv-x="512" d="M45 381v119h422v-119h-422z" />
<glyph unicode="." horiz-adv-x="534" d="M109 113q0 61 44.5 98t112.5 37q70 0 115 -37t45 -98t-45 -97t-115 -36q-69 0 -113 36.5t-44 96.5z" />
<glyph unicode="/" horiz-adv-x="514" d="M-10 12l448 1288l86 -18l-446 -1294z" />
<glyph unicode="0" horiz-adv-x="1062" d="M51 608q0 301 129 468t357 167q232 0 353.5 -164t121.5 -471q0 -297 -128.5 -462.5t-359.5 -165.5q-235 0 -354 162.5t-119 465.5zM274 610q0 -219 21 -342q20 -121 77 -172t158 -51q98 0 158 51q61 51 82 179.5t21 334.5q0 220 -21 346q-20 121 -79 174.5t-161 53.5 q-147 0 -200 -133q-56 -133 -56 -441z" />
<glyph unicode="1" horiz-adv-x="772" d="M106 1096v59q64 18 367 109h39v-1168q0 -41 37 -41l139 2v-57h-561v57l143 -2q41 0 41 41v969q0 31 -41 31h-164z" />
<glyph unicode="2" horiz-adv-x="1030" d="M90 125q177 128 291.5 234.5t177.5 203t87 181t24 186.5q0 122 -51.5 187t-139.5 65q-79 0 -128.5 -38.5t-49.5 -103.5q0 -21 10 -59q11 -42 11 -57q0 -42 -30.5 -64t-76.5 -22q-57 0 -89 34.5t-32 94.5q0 70 47 135t140 103t215 38q185 0 292 -82t107 -246 q0 -175 -149 -355.5t-486 -391.5v-6h369q115 0 168 39.5t65 140.5h76q-46 -264 -49 -348q-18 6 -115 6h-678z" />
<glyph unicode="3" horiz-adv-x="1019" d="M55 231q0 55 30.5 86t86.5 31q51 0 80 -24.5t29 -65.5q0 -22 -9 -49q-10 -33 -10 -51q0 -54 55 -84.5t138 -30.5q134 0 209 78.5t75 208.5q0 66 -16.5 113t-57.5 85t-119 57.5t-194 20.5v64q160 7 236 85.5t76 213.5q0 213 -195 213q-76 0 -128 -33.5t-52 -83.5 q0 -16 10 -49q10 -38 10 -51q0 -42 -31.5 -66.5t-76.5 -24.5q-59 0 -89 32.5t-30 86.5q0 72 56 129.5t150.5 89t207.5 31.5q172 0 281.5 -69t109.5 -193q0 -125 -89 -207.5t-251 -118.5v-6q416 -24 416 -309q0 -114 -66 -195q-65 -81 -176 -123t-252 -42q-127 0 -213 34 q-95 34 -148 91t-53 126z" />
<glyph unicode="4" horiz-adv-x="976" d="M29 309v131q38 32 61 62l60 63l468 570l35 45l43 57h78v-786h164v-142h-164v-213q0 -41 39 -41l92 2v-57h-508v57l140 -2q36 0 36 41v213h-544zM141 451h432v526z" />
<glyph unicode="5" horiz-adv-x="1001" d="M68 240q0 60 31.5 92.5t86.5 32.5q45 0 76 -25.5t31 -67.5q0 -22 -10 -55q-11 -37 -11 -45q0 -63 56 -97t139 -34q117 0 179.5 88.5t62.5 245.5q0 291 -283 291q-70 0 -136 -30t-102 -75l-57 33l47 629h539q87 0 170 6q-17 -66 -31 -170h-614l-35 -397q61 43 143.5 69.5 t159.5 26.5q190 0 305 -101.5t115 -271.5q0 -126 -62 -215q-61 -91 -166.5 -140.5t-234.5 -49.5q-109 0 -198 29t-145 89t-56 142z" />
<glyph unicode="6" horiz-adv-x="1007" d="M78 547q0 121 17.5 223.5t56 191t97 150t145 96.5t194.5 35q94 0 170 -29q70 -30 106.5 -76.5t36.5 -99.5q0 -52 -32 -85t-85 -33q-50 0 -79 21.5t-29 59.5q0 19 8 43q8 21 8 41q0 42 -34 67.5t-93 25.5q-124 0 -193 -144.5t-75 -392.5q98 131 268 131q189 0 290 -100.5 t101 -276.5q0 -195 -119 -306.5t-319 -111.5q-440 0 -440 570zM293 375q0 -152 61 -247t174 -95q211 0 211 334q0 346 -211 346q-117 0 -176 -93.5t-59 -244.5z" />
<glyph unicode="7" horiz-adv-x="892" d="M55 944l11 80q20 167 20 205q27 -6 250 -6h538l9 -90q-379 -419 -379 -990q0 -63 6 -143h-225q3 177 37 330q79 368 407 729h-418q-91 0 -132.5 -26.5t-49.5 -88.5h-74z" />
<glyph unicode="8" horiz-adv-x="1030" d="M66 266q0 114 79.5 203.5t219.5 146.5q-129 72 -189.5 145.5t-60.5 172.5q0 139 121.5 224t310.5 85q177 0 285 -69t108 -195q0 -104 -79.5 -186t-190.5 -113q305 -154 305 -361q0 -102 -66 -180q-66 -77 -177.5 -118t-242.5 -41q-193 0 -308 72.5t-115 213.5zM236 281 q0 -106 73.5 -173t198.5 -67q110 0 179 54t69 145q0 79 -45 139q-43 56 -102.5 97t-180.5 104q-82 -43 -137 -127.5t-55 -171.5zM332 999q0 -82 61.5 -141.5t214.5 -144.5q168 88 168 262q0 99 -57 153t-160 54q-102 0 -164.5 -50.5t-62.5 -132.5z" />
<glyph unicode="9" horiz-adv-x="1007" d="M86 825q0 195 119 306.5t319 111.5q441 0 441 -569q0 -152 -28.5 -275.5t-87.5 -219.5t-159 -149t-235 -53q-97 0 -170 31q-70 28 -107 74.5t-37 99.5q0 52 32 85.5t85 33.5q50 0 79.5 -22t29.5 -60q0 -17 -9 -41q-8 -24 -8 -43q0 -42 34 -67t93 -25q124 0 193 144.5 t75 392.5q-98 -131 -266 -131q-192 0 -292.5 99.5t-100.5 276.5zM303 854q3 -346 211 -346q118 0 177 93.5t59 244.5q0 152 -61.5 247t-174.5 95q-214 0 -211 -334z" />
<glyph unicode=":" horiz-adv-x="534" d="M109 113q0 61 44.5 98t112.5 37q70 0 115 -37t45 -98t-45 -97t-115 -36q-69 0 -113 36.5t-44 96.5zM109 715q0 61 44.5 98t112.5 37q70 0 115 -37t45 -98t-45 -97t-115 -36q-69 0 -113 36.5t-44 96.5z" />
<glyph unicode=";" horiz-adv-x="536" d="M96 715q0 61 44.5 98t113.5 37q70 0 115 -37t45 -98t-45 -97t-115 -36q-69 0 -113.5 36.5t-44.5 96.5zM117 90q0 55 39 92t98 37q83 0 128.5 -51t45.5 -139q0 -103 -70.5 -197.5t-177.5 -159.5l-39 31q57 45 97.5 109t40.5 116q0 60 -76 60q-43 0 -64.5 28t-21.5 74z" />
<glyph unicode="&#x3c;" d="M111 420v49l720 434v-106l-524 -318l-78 -33l78 -36l524 -316v-106z" />
<glyph unicode="=" d="M72 211v96h798v-96h-798zM72 612v95h798v-95h-798z" />
<glyph unicode="&#x3e;" d="M111 -10v106l524 318l78 32l-78 37l-524 316v106l720 -432v-49z" />
<glyph unicode="?" horiz-adv-x="831" d="M57 1194q0 84 103 131t264 47q173 0 272 -59.5t99 -163.5q0 -80 -42 -148t-135 -133q-110 -75 -137 -101q-46 -45 -53 -99q-15 -88 -18 -254h-97q-34 206 -34 293q0 29 7 51t30 48t39 40.5t60 51.5q8 7 13 11q82 67 108.5 124t26.5 132q0 65 -46 105.5t-128 40.5 q-59 0 -98 -21t-39 -57q0 -16 8 -37t8 -39q0 -36 -26.5 -55t-69.5 -19q-54 0 -84.5 32t-30.5 79zM207 109q0 58 45 97.5t113 39.5q67 0 112 -36t45 -95q0 -60 -45 -97.5t-112 -37.5q-65 0 -111.5 36.5t-46.5 92.5z" />
<glyph unicode="@" horiz-adv-x="1550" d="M49 365q0 221 111 421q111 203 302 323t419 120q175 0 317 -80q141 -80 221 -217.5t80 -304.5q0 -163 -89 -314.5t-247 -253.5q-122 -79 -213 -79q-37 0 -50 21t-13 73q0 87 47 295q-101 -205 -196.5 -297t-200.5 -92q-90 0 -139.5 65.5t-49.5 183.5q0 154 76 306 q75 157 200 253.5t263 96.5q92 0 127 -80l10 41l229 35l-47 -197q-91 -388 -88 -496q3 -34 27 -34q55 0 123 71q70 73 116 183t46 217q0 142 -72 268q-75 125 -200 196.5t-277 71.5q-230 0 -392 -119q-160 -115 -245.5 -300t-85.5 -388q0 -176 80 -309q80 -136 228 -209.5 t345 -73.5q183 0 326 61t280 197l41 -51q-145 -146 -302 -210t-363 -64q-224 0 -392 82q-169 82 -260.5 234t-91.5 354zM571 260q0 -154 91 -154q40 0 122 107q84 112 144.5 255t60.5 249q0 44 -24.5 75t-61.5 31q-86 0 -162.5 -87t-126.5 -240q-43 -125 -43 -236z" />
<glyph unicode="A" horiz-adv-x="1241" d="M-41 0v68l55 -5h9q41 0 67 39q37 57 62 119l426 1022h73l430 -1026q24 -64 60 -117q27 -37 71 -37h11l59 5v-68h-573v68l96 -5q6 -1 11 -1q50 0 50 51q0 36 -20 80l-88 213h-465l-84 -201q-29 -69 -29 -103q0 -41 39 -41h6l97 7v-68h-363zM317 469h414l-209 498z" />
<glyph unicode="B" horiz-adv-x="1181" d="M92 0v68l101 -5q34 0 34 46v1009q0 15 -9 28t-25 13l-101 -4v68h598q174 0 264 -73.5t90 -219.5q0 -108 -76 -183t-206 -98q96 0 176 -41q81 -42 127.5 -114.5t46.5 -161.5q0 -332 -453 -332h-567zM459 92q0 -26 28 -26h125q120 0 190 70.5t70 197.5q0 274 -227 274h-186 v-516zM459 672h135q215 0 215 245v7q-3 235 -225 235h-101q-21 0 -24 -24v-463z" />
<glyph unicode="C" horiz-adv-x="1232" d="M78 604q0 301 165.5 470t458.5 169q74 0 123.5 -10.5t132.5 -38.5q44 -15 65.5 -22t51.5 -12t62 -5q-9 -65 -9 -154q0 -52 2 -75q3 -35 7 -39h-58q-21 118 -128.5 208.5t-239.5 90.5q-178 0 -278.5 -155.5t-100.5 -426.5q0 -254 105 -407.5t282 -153.5q136 0 240.5 84.5 t130.5 214.5h65q-12 -99 -12 -174q0 -58 6 -96h-12q-51 0 -172 -37q-98 -30 -154.5 -42.5t-118.5 -12.5q-190 0 -325 75q-139 75 -214 216.5t-75 332.5z" />
<glyph unicode="D" horiz-adv-x="1286" d="M92 0v68l86 -5q29 -3 29 46v1007q0 19 -10.5 31t-28.5 12l-76 -4v68h479q337 0 493.5 -144t156.5 -467q0 -612 -625 -612h-504zM438 92q0 -26 25 -26h74q162 0 254 51q93 50 135.5 167.5t42.5 325.5q0 209 -43 328q-42 117 -135 169t-254 52h-74q-25 0 -25 -26v-1041z " />
<glyph unicode="E" horiz-adv-x="1161" d="M92 0v70l78 -7q37 0 37 46v1007q0 19 -11.5 31.5t-29.5 11.5l-74 -4v68h883q31 0 35 2v-318h-64q0 133 -68.5 192.5t-222.5 59.5h-192q-25 0 -25 -29v-464h174q70 0 113 55.5t43 150.5h61v-477h-61q0 87 -46 147t-110 60h-174v-510q0 -26 25 -26h260q139 0 212 77t73 224 h63v-373q-47 6 -188 6h-791z" />
<glyph unicode="F" horiz-adv-x="1083" d="M92 0v70l78 -7q37 0 37 46v1007q0 43 -35 43h-4l-76 -4v68h907q27 0 31 2v-318h-63q0 131 -69.5 191.5t-221.5 60.5h-213q-25 0 -25 -26v-488h148q74 0 118 56.5t44 152.5h61v-477h-61q0 92 -45 148.5t-117 56.5h-148v-476q0 -19 11 -31t28 -12l107 7v-70h-492z" />
<glyph unicode="G" horiz-adv-x="1327" d="M78 606q0 312 161.5 474.5t462.5 162.5q148 0 316 -59q83 -29 117 -29h8q-8 -41 -8 -133q0 -45 8 -141h-92q2 6 2 32q0 129 -89 201t-255 72q-176 0 -276.5 -152.5t-100.5 -435.5q3 -555 375 -555q79 0 131.5 20t101.5 70v318q0 45 -39 45l-121 -4v65h506v-65l-76 4 q-18 0 -28.5 -12t-10.5 -31v-381q-8 2 -30 2q-41 0 -131 -33q-96 -33 -163.5 -47t-160.5 -14q-286 0 -447 161t-161 465z" />
<glyph unicode="H" horiz-adv-x="1425" d="M92 0v68l78 -5q37 0 37 46v1007q0 23 -9.5 33.5t-29.5 9.5l-76 -4v68h488v-68l-101 4h-4q-37 0 -37 -43v-457h549v457q0 23 -9.5 33.5t-29.5 9.5l-100 -4v68h485v-68l-76 4h-4q-34 0 -34 -43v-1007q0 -46 34 -46h4l76 5v-68h-485v68l100 -5q39 0 39 46v487h-549v-487 q0 -46 41 -46l101 5v-68h-488z" />
<glyph unicode="I" horiz-adv-x="649" d="M92 0v68l78 -5q37 0 37 46v1007q0 20 -10.5 32t-28.5 11l-76 -4v68h465v-68l-78 4h-4q-17 0 -27 -12t-10 -31v-1007q0 -46 36 -46h5l78 5v-68h-465z" />
<glyph unicode="J" horiz-adv-x="931" d="M49 -2v354h82q0 -82 19.5 -150t65.5 -114.5t112 -46.5q93 0 133.5 74.5t40.5 251.5v749q0 19 -11 31.5t-28 11.5l-141 -4v68h526v-68l-74 4h-4q-17 0 -27 -11.5t-10 -29.5v-751q0 -387 -366 -387q-62 0 -164 18q-65 12 -82 12h-17q-43 0 -55 -12z" />
<glyph unicode="K" horiz-adv-x="1284" d="M92 0v68l78 -5q37 0 37 46v1007q0 21 -10.5 32.5t-28.5 10.5l-76 -4v68h488v-68l-101 4q-41 0 -41 -45v-545l436 516q35 41 35 56q0 18 -20 18l-82 -4v68h367v-68l-70 4q-34 2 -61 -11t-58 -48l-301 -346l473 -664q23 -29 49 -29t66 7v-68h-531v68l105 -7q35 0 35 23 q0 11 -11 29l-335 469l-97 -111v-362q0 -46 36 -46h5l99 5v-68h-486z" />
<glyph unicode="L" horiz-adv-x="1052" d="M92 0v70l84 -7q31 0 31 46v1007q0 19 -11 31.5t-28 11.5l-76 -4v68h488v-68l-101 4h-4q-17 0 -27 -12t-10 -31v-1024q0 -26 25 -26h205q137 0 208.5 72.5t71.5 211.5h60v-356q-38 6 -254 6h-662z" />
<glyph unicode="M" horiz-adv-x="1781" d="M82 0v68l80 -5q41 0 41 46v1038q0 15 -21 12l-86 -4v68h363l456 -949l428 949h336v-68l-67 4h-4q-17 0 -27 -11.5t-10 -29.5v-1009q0 -46 36 -46h5l78 5v-68h-490v68l100 -5q41 0 41 46v938l-479 -1067h-57l-526 1099v-970q0 -46 38 -46l101 5v-68h-336z" />
<glyph unicode="N" horiz-adv-x="1370" d="M82 0v59l80 -4q41 0 41 45v1022q0 19 -11.5 31.5t-29.5 11.5l-80 -4v62h364l646 -881v782q0 41 -35 41h-6l-101 -4v62h338v-62l-80 4h-4q-35 0 -35 -43v-1134h-90l-800 1087v-975q0 -45 38 -45l101 4v-59h-336z" />
<glyph unicode="O" horiz-adv-x="1380" d="M78 612q0 304 160 467.5t452 163.5t451 -165.5t159 -465.5t-160.5 -466t-449.5 -166q-290 0 -451 165.5t-161 466.5zM332 612q0 -309 83.5 -439t274.5 -130t274 130t83 439q0 307 -83.5 438.5t-273.5 131.5t-274 -131.5t-84 -438.5z" />
<glyph unicode="P" horiz-adv-x="1093" d="M92 0v68l78 -5q37 0 37 46v1005q0 25 -10.5 35.5t-36.5 9.5l-68 -4v68h508q221 0 326.5 -82.5t105.5 -253.5q0 -165 -104.5 -264t-280.5 -99h-209v-415q0 -46 41 -46l101 5v-68h-488zM438 590h146q91 0 149 84t58 213q0 122 -62.5 197t-165.5 75h-100q-8 0 -16.5 -7 t-8.5 -17v-545z" />
<glyph unicode="Q" horiz-adv-x="1380" d="M78 612q0 304 160 467.5t452 163.5t451 -165.5t159 -465.5t-160.5 -466t-449.5 -166q-290 0 -451 165.5t-161 466.5zM332 612q0 -309 83.5 -439t274.5 -130t274 130t83 439q0 307 -83.5 438.5t-273.5 131.5t-274 -131.5t-84 -438.5zM561 0l129 -20q54 -9 100 -33.5 t75 -53.5t59 -62t52.5 -59.5t55 -45.5t67.5 -21h8q33 0 81 14l24 -61q-108 -64 -223 -64q-36 0 -71.5 19t-76.5 61t-77 85t-95 115t-108 126z" />
<glyph unicode="R" horiz-adv-x="1204" d="M92 0v68l78 -5q37 0 37 46v1007q0 20 -11.5 32t-33.5 11l-70 -4v68h492q226 0 329 -76t103 -242q0 -112 -73 -193t-198 -110q67 0 138 -41q72 -45 116.5 -127t44.5 -184q0 -65 17.5 -127t42.5 -66q16 -4 29 -4q21 0 34 8v-61h-315q-26 57 -29 135q-4 70 -4 78v68 q0 142 -85.5 216t-221.5 74h-74v-462q0 -46 41 -46l101 5v-68h-488zM438 635h164q86 0 135 68.5t49 189.5q0 139 -53.5 202.5t-169.5 63.5h-100q-25 0 -25 -20v-504z" />
<glyph unicode="S" horiz-adv-x="1015" d="M92 414l58 2q52 -371 366 -371q102 0 163.5 63t61.5 166q0 150 -200 230l-205 84q-227 91 -230 307q0 92 46 174q45 81 136 127.5t216 46.5q48 0 106.5 -12t81.5 -19.5t82 -27.5q37 -13 57 -13q37 0 58 9q-6 -50 -6 -154q0 -70 2 -88q4 -35 10 -49h-59q0 129 -86.5 211 t-217.5 82q-103 0 -167 -56t-64 -149q0 -127 176 -199l182 -76q160 -67 226.5 -144.5t66.5 -201.5q0 -112 -51 -192q-53 -87 -147.5 -135.5t-214.5 -48.5q-114 0 -205 26q-115 31 -160 31q-24 0 -74 -10q9 44 9 163q0 148 -17 224z" />
<glyph unicode="T" horiz-adv-x="1097" d="M31 909v320q46 -4 90 -4h858q64 0 88 4v-320h-59q0 131 -59.5 191.5t-192.5 60.5h-68q-21 0 -24 -22v-1030q0 -46 41 -46l108 5v-68h-530v68l110 -5q18 0 28.5 15.5t10.5 36.5v1022q0 24 -24 24h-62q-134 0 -194 -61t-60 -191h-61z" />
<glyph unicode="U" horiz-adv-x="1341" d="M72 1155v68h489v-68l-100 4h-4q-17 0 -27 -11.5t-10 -29.5v-710q0 -172 89 -264.5t253 -92.5q152 0 240 99t88 260v706q0 21 -10 32.5t-27 10.5l-101 -4v68h338v-68l-80 4h-4q-17 0 -27 -11.5t-10 -29.5v-719q0 -189 -120.5 -304t-331.5 -115q-529 0 -529 432v704 q0 19 -10.5 31.5t-27.5 11.5z" />
<glyph unicode="V" horiz-adv-x="1216" d="M-8 1155v68h479v-68l-106 4q-10 0 -16.5 -9t-6.5 -22q0 -2 4 -18l354 -819l344 796q15 35 15 50q0 22 -25 22l-102 -4v68h325v-68l-73 4q-16 1 -23 -7t-20 -40l-484 -1120h-77l-484 1120q-21 47 -47 47z" />
<glyph unicode="W" horiz-adv-x="1835" d="M-8 1155v68h477v-68l-104 4q-27 0 -27 -22l6 -23l287 -772l291 881h143l354 -916l267 811l4 17q0 12 -7.5 18.5t-19.5 5.5l-107 -4v68h320v-68l-61 4h-4q-33 0 -48 -43l-374 -1136h-60l-401 1026l-342 -1026h-66l-424 1134q-15 45 -43 45z" />
<glyph unicode="X" horiz-adv-x="1175" d="M53 0v70l74 -4q44 0 70 45l307 493l-305 516q-20 39 -66 39l-59 -4v68h506v-68l-86 4h-5q-13 0 -21.5 -6.5t-8.5 -17.5q0 -10 6 -19l211 -366l233 368q11 18 11 25q0 19 -27 16l-88 -4v68h321v-68l-67 4q-37 0 -64 -41l-276 -444l344 -578q19 -35 55 -35h6l74 7v-68h-520 v68l100 -7h4q21 0 21 19q0 12 -10 29l-248 417l-264 -422q-7 -14 -7 -22t6 -14t13 -5l92 7v-70h-332z" />
<glyph unicode="Y" horiz-adv-x="1085" d="M-6 1155v68h498v-68l-109 4h-2q-23 0 -23 -20q0 -11 11 -29l276 -461l264 469q6 9 6 21q0 20 -20 20l-107 -4v68h318v-68l-62 4q-33 0 -57 -43l-301 -538v-472q0 -43 41 -43l98 5v-68h-510v68l101 -5q39 0 39 46v423l-355 588q-20 39 -49 39z" />
<glyph unicode="Z" horiz-adv-x="1081" d="M68 0v55l655 1104h-283q-148 0 -218 -61.5t-70 -190.5h-62v322l92 -2q106 -4 131 -4h686v-49l-655 -1111h326q142 0 224.5 74.5t82.5 204.5h63l-16 -350q-21 8 -231 8h-725z" />
<glyph unicode="[" horiz-adv-x="544" d="M94 -301v1683h383v-61h-192v-1561h192v-61h-383z" />
<glyph unicode="\" horiz-adv-x="516" d="M-16 1282l88 21l448 -1289l-90 -24z" />
<glyph unicode="]" horiz-adv-x="544" d="M70 -240h192v1561h-192v61h383v-1683h-383v61z" />
<glyph unicode="^" d="M37 657l412 689h47l409 -689h-102l-297 502l-35 76l-31 -76l-301 -502h-102z" />
<glyph unicode="_" horiz-adv-x="1009" d="M0 -293h1010v-90h-1010v90z" />
<glyph unicode="`" horiz-adv-x="565" d="M61 1274q0 17 46 40t81 23q22 0 33 -8q28 -28 41 -43l195 -213q35 -38 35 -51q0 -18 -25 -18q-18 0 -45 18l-338 221q-23 16 -23 31z" />
<glyph unicode="a" horiz-adv-x="937" d="M43 211q0 154 131.5 227.5t413.5 73.5v139q0 90 -38 131t-128 41q-146 0 -146 -86q0 -17 11 -43q8 -19 8 -39q0 -38 -26 -59t-68 -21q-49 0 -78 29.5t-29 77.5q0 92 95.5 147.5t256.5 55.5q359 0 359 -281v-508q0 -39 26 -39l74 4v-61h-327q8 41 8 76l2 67 q-82 -163 -283 -163q-262 0 -262 231zM270 231q0 -81 30 -119q27 -34 78 -35q7 0 13 1q78 0 134 68t63 173v130q-166 0 -242 -52.5t-76 -165.5z" />
<glyph unicode="b" horiz-adv-x="1015" d="M39 1438v57h315v-782q76 172 267 172q356 0 356 -455q0 -223 -96 -336.5t-285 -113.5q-67 0 -115 15.5t-78 40.5t-65 70q-10 19 -37 19q-30 0 -46.5 -36t-16.5 -99h-101v1411q0 41 -26 41zM358 379q0 -328 209 -328q69 0 109 37q72 69 72 342q0 212 -33 297 q-35 86 -140 86q-102 0 -159.5 -93t-57.5 -255v-86z" />
<glyph unicode="c" horiz-adv-x="882" d="M59 424q0 213 116 337t310 124q93 0 170 -27q76 -28 121 -77.5t45 -106.5q0 -50 -28.5 -81.5t-81.5 -31.5q-90 0 -90 74q0 22 8 43q10 23 10 45q0 48 -40.5 74t-104.5 26q-101 0 -152 -87.5t-51 -284.5q0 -210 57.5 -309t171.5 -99q96 0 168.5 51.5t106.5 151.5l55 -27 q-85 -239 -356 -239q-200 0 -317.5 116t-117.5 328z" />
<glyph unicode="d" horiz-adv-x="1040" d="M61 430q0 455 379 455q92 0 157.5 -45.5t86.5 -118.5v680q0 41 -27 41l-94 -4v57h340v-1399q0 -39 27 -39l71 4v-61h-331q4 20 4 33v45q0 29 2 39q2 8 2 16q-53 -153 -236 -153q-202 0 -291.5 108t-89.5 342zM293 430q0 -138 16 -223q17 -83 55 -119.5t109 -36.5 q109 0 158 79.5t49 248.5v86q0 168 -53 258t-156 90q-95 0 -136.5 -95t-41.5 -288z" />
<glyph unicode="e" horiz-adv-x="935" d="M57 430q0 455 437 455q174 0 279 -103t106 -284v-68h-590q0 -372 258 -375q96 0 167 47.5t105 124.5l51 -37q-42 -98 -144 -154t-232 -56q-437 0 -437 450zM291 489h327q41 0 41 68q0 137 -39 201.5t-128 64.5q-101 0 -151 -90t-50 -244z" />
<glyph unicode="f" horiz-adv-x="608" d="M57 0v61l76 -4q27 0 27 39v711h-80v57h80v131q0 512 364 512q110 0 188.5 -61.5t78.5 -149.5q0 -49 -29.5 -79.5t-83.5 -30.5q-90 0 -90 69q0 17 8 41q10 27 10 50q0 44 -23.5 72t-66.5 28q-154 0 -154 -236q0 -40 7 -143q6 -91 6 -147v-56h194v-57h-192v-711 q0 -39 26 -39l134 4v-61h-480z" />
<glyph unicode="g" horiz-adv-x="989" d="M70 -240q0 157 192 242q-162 34 -162 148q0 41 20.5 71.5t76.5 75.5l59 49q-147 82 -147 242q0 134 103.5 215.5t270.5 81.5q183 0 278 -80.5t95 -214.5q0 -135 -101.5 -216t-271.5 -81q-87 0 -161 26q-58 -40 -58 -83q0 -72 117 -72h242q171 0 255.5 -70t84.5 -225 q0 -170 -137.5 -270.5t-366.5 -100.5q-187 0 -288 67.5t-101 194.5zM209 -229q0 -99 65 -156t191 -57q150 0 236.5 74t86.5 194q0 85 -47 124.5t-149 39.5h-205q-73 -7 -125.5 -73t-52.5 -146zM332 586q0 -131 30 -184.5t119 -53.5q85 0 118.5 54t33.5 186q0 128 -34 181.5 t-118 53.5q-85 0 -117 -51t-32 -186zM664 858q38 -14 69 -14q24 0 45 8q47 18 47 72q0 25 -30 43q-31 19 -31 53q0 86 90 86q98 0 98 -113q0 -181 -204 -202z" />
<glyph unicode="h" horiz-adv-x="1087" d="M57 0v61l74 -4q27 6 27 39v1303q0 38 -27 41l-74 -4v59h318v-815q43 98 123 151.5t188 53.5q141 0 205.5 -69.5t64.5 -221.5v-498q0 -39 27 -39l72 4v-61h-428v61l86 -4q26 6 26 39v477q0 141 -24 187q-24 47 -94 47q-106 0 -175.5 -106t-70.5 -271v-334q0 -39 26 -39 l86 4v-61h-430z" />
<glyph unicode="i" horiz-adv-x="530" d="M57 0v61l74 -4q27 0 27 39v672q0 35 -25 41l-74 -4v59h316v-768q0 -42 26 -39l70 4v-61h-414zM123 1221q0 49 36.5 78.5t96.5 29.5q58 0 94.5 -29.5t36.5 -78.5q0 -53 -35 -83t-96 -30t-97 30t-36 83z" />
<glyph unicode="j" horiz-adv-x="524" d="M-166 -352q0 47 31 75.5t82 28.5q35 0 61.5 -18t26.5 -56q0 -11 -6 -32t-6 -31q0 -51 55 -51q91 3 91 121q0 10 -1 22q-10 113 -10 193v868q0 41 -27 41l-78 -4v59h322v-880q0 -482 -307 -482q-107 0 -170.5 41t-63.5 105zM127 1221q0 49 35.5 78.5t95.5 29.5 q58 0 95.5 -29.5t37.5 -78.5q0 -53 -36 -83t-97 -30t-96 29t-35 84z" />
<glyph unicode="k" horiz-adv-x="1058" d="M57 0v61l74 -4q27 6 27 39v1303q0 43 -25 43l-74 -4v57h316v-1010l330 285q12 12 12 27q0 6 -6 10.5t-13 3.5l-88 -4v57h340v-57l-73 4q-27 0 -64 -29l-221 -188l330 -500q10 -17 26.5 -28t28.5 -9l67 4v-61h-464v61l82 -4h4q13 0 17.5 8.5t-3.5 20.5l-248 371l-57 -49 v-312q0 -42 26 -39l84 4v-61h-428z" />
<glyph unicode="l" horiz-adv-x="530" d="M57 0v61l74 -4q27 6 27 39v1305q0 34 -25 43l-74 -4v57h316v-1401q0 -42 26 -39l70 4v-61h-414z" />
<glyph unicode="m" horiz-adv-x="1646" d="M57 0v61l74 -4q27 6 27 39v672q0 38 -27 41l-74 -4v59h330q-10 -33 -10 -69v-113q36 94 115.5 148.5t187.5 54.5q118 0 179.5 -52t78.5 -174q38 109 119 167.5t192 58.5q139 0 201.5 -69t62.5 -222v-498q0 -39 27 -39l74 4v-61h-428v61l84 -4q26 6 26 39v477 q0 138 -22 187q-24 47 -88 47q-95 0 -166.5 -106t-75.5 -263v-342q0 -39 27 -39l86 4v-61h-441v61l84 -4q27 6 27 39v479q0 135 -22.5 182.5t-94.5 47.5q-93 0 -160.5 -98.5t-74.5 -249.5v-361q0 -42 26 -39l84 4v-61h-428z" />
<glyph unicode="n" horiz-adv-x="1087" d="M57 0v61l74 -4q27 6 27 39v672q0 35 -27 41l-74 -4v59h328q-10 -33 -10 -71v-113q43 98 123 151.5t188 53.5q141 0 205.5 -69.5t64.5 -221.5v-498q0 -39 27 -39l72 4v-61h-428v61l86 -4q26 6 26 39v477q0 134 -23 184t-95 50q-103 0 -174 -102.5t-72 -274.5v-334 q0 -39 26 -39l86 4v-61h-430z" />
<glyph unicode="o" horiz-adv-x="980" d="M57 434q0 217 111 334t324 117q211 0 320.5 -116t109.5 -329q-3 -460 -435 -460q-209 0 -319.5 118t-110.5 336zM289 430q0 -207 47 -297t156 -90q106 0 153 89.5t47 297.5q0 210 -47 301.5t-153 91.5q-109 0 -156 -91t-47 -302z" />
<glyph unicode="p" horiz-adv-x="1036" d="M37 805v59h323q-8 -47 -8 -104v-55q60 180 271 180q352 0 352 -455q0 -228 -95.5 -339t-293.5 -111q-173 0 -234 104v-477q0 -41 27 -41l127 4v-59h-461v59l64 -4q26 3 26 41v1161q0 41 -26 41zM356 379q0 -328 205 -328q71 0 111 37q73 68 73 342q0 152 -14 229 q-13 81 -50.5 117.5t-105.5 36.5q-103 0 -161 -94t-58 -254v-86z" />
<glyph unicode="q" horiz-adv-x="1024" d="M61 430q3 455 383 455q87 0 144.5 -26t99.5 -87l4 -6q5 -7 7.5 -9t7.5 -6.5t11 -6t13 -1.5q68 0 68 121h102v-1257q0 -42 27 -39l61 2v-59h-446v59l114 -2q27 3 27 39v520q-25 -63 -91 -105t-159 -42q-194 0 -283.5 110t-89.5 340zM293 436q0 -217 41 -301t141 -84 q94 0 149.5 97t55.5 233v86q0 73 -10.5 133.5t-33.5 109.5t-62.5 76t-92.5 27q-102 0 -145 -86t-43 -291z" />
<glyph unicode="r" horiz-adv-x="817" d="M59 805v59h326q-12 -32 -12 -94v-96q76 211 239 211q84 0 134.5 -47t50.5 -123q0 -52 -29 -80.5t-74 -28.5q-39 0 -65.5 19.5t-26.5 54.5q0 21 8 45q8 27 8 41q0 45 -45 45q-55 0 -102 -59q-42 -59 -67.5 -147t-30.5 -177v-332q0 -39 26 -39l133 4v-61h-464v61l61 -4 q27 0 27 39v672q0 41 -27 41z" />
<glyph unicode="s" horiz-adv-x="845" d="M82 20l10 271l62 4q0 -108 86 -180t211 -72q74 0 116.5 36.5t42.5 102.5q0 55 -31.5 87.5t-105.5 52.5l-174 49q-201 60 -201 247q0 120 86 193.5t236 73.5q59 0 158 -27q64 -18 98 -18q30 0 59 16l-12 -233h-53q0 82 -66.5 141t-173.5 59q-71 0 -112.5 -36t-41.5 -93 q0 -90 121 -125l172 -47q118 -30 166.5 -90t48.5 -162q0 -135 -95.5 -212.5t-252.5 -77.5q-69 0 -237 45q-27 8 -56 8q-42 0 -61 -13z" />
<glyph unicode="t" horiz-adv-x="651" d="M37 807v57q120 0 165.5 40t76.5 169h98v-209h215v-57h-215v-627q0 -74 18.5 -101.5t63.5 -27.5q28 0 58.5 23.5t41.5 58.5l49 -29q-46 -118 -221 -118q-117 0 -172 48t-55 156v617h-123z" />
<glyph unicode="u" horiz-adv-x="1081" d="M33 805v59h315v-575q0 -119 23 -176q22 -54 86 -54q103 0 172.5 98t75.5 255l2 356q0 41 -25 41l-90 -4v59h334v-768q0 -39 26 -39l70 4v-61h-328q11 33 11 123v55q-88 -198 -318 -198q-135 0 -195.5 74.5t-60.5 240.5v475q0 39 -27 39z" />
<glyph unicode="v" horiz-adv-x="937" d="M-27 805v59h459v-59l-86 4q-15 0 -26.5 -12.5t-4.5 -28.5l211 -510l205 518q4 12 4 17q0 19 -20 16l-88 -4v59h293v-59l-70 4q-33 0 -45 -31l-322 -788h-86l-315 792q-5 12 -17 20t-24 7z" />
<glyph unicode="w" horiz-adv-x="1501" d="M-27 805v59h473v-59l-90 4h-4q-18 0 -25 -11.5t-1 -29.5l182 -510l266 616h68l260 -604l182 504l4 17q0 21 -26 18l-109 -4v59h330v-59l-82 4q-28 0 -43 -35l-303 -794h-68l-264 614l-272 -614h-64l-289 802q-12 27 -35 27z" />
<glyph unicode="x" horiz-adv-x="1028" d="M12 0v61l84 -4q25 0 43 27l248 340l-254 358q-15 27 -39 27l-76 -4v59h486v-59l-94 4q-15 0 -21.5 -7.5t2.5 -19.5l180 -256l191 248q6 9 6 19q0 16 -18 16l-88 -4v59h309v-59l-82 4q-27 0 -51 -31l-228 -305l275 -389q18 -27 39 -27l86 4v-61h-498v61l100 -6h2 q11 0 15.5 10.5t-2.5 18.5l-201 285l-211 -283l-4 -8q0 -21 27 -21l88 4v-61h-314z" />
<glyph unicode="y" horiz-adv-x="1007" d="M-16 805v59h483v-59l-92 4q-14 0 -22.5 -11.5t-2.5 -23.5l238 -504l211 508q2 2 2 13q0 18 -23 18l-96 -4v59h322v-59l-84 4q-38 0 -52 -39l-426 -1026q-53 -129 -113 -181t-149 -52q-64 0 -105.5 30t-45.5 84q0 55 28 86t68 31q36 0 55.5 -13.5t38.5 -45.5 q21 -41 51 -41q54 0 92 96l109 262l-365 782q-12 27 -32 27z" />
<glyph unicode="z" horiz-adv-x="905" d="M70 -4v49l477 762h-168q-98 0 -158.5 -59t-77.5 -170h-51l19 290q24 0 61 -2q35 -2 135 -2h498v-45l-469 -760h172q130 0 197 57t67 169h51v-285h-540l-172 -2q-12 -2 -41 -2z" />
<glyph unicode="{" horiz-adv-x="573" d="M61 522v49q72 12 99.5 48t27.5 114v459q0 111 48.5 150.5t175.5 39.5h84v-67h-56q-73 0 -73 -109v-473q0 -94 -43 -129.5t-166 -56.5q124 -26 166.5 -60.5t42.5 -126.5v-483q0 -108 73 -108h56v-68h-84q-130 0 -177 38.5t-47 151.5v469q0 86 -22 114t-105 48z" />
<glyph unicode="|" horiz-adv-x="483" d="M201 -489v1984h82v-1984h-82z" />
<glyph unicode="}" horiz-adv-x="587" d="M92 -231h55q77 0 74 108v483q0 92 42.5 126.5t166.5 60.5q-123 21 -166 56.5t-43 129.5v473q0 109 -74 109h-55v67h84q127 0 175 -39.5t48 -150.5v-459q0 -78 27.5 -114t99.5 -48v-49q-82 -20 -104.5 -48t-22.5 -114v-469q0 -113 -46.5 -151.5t-176.5 -38.5h-84v68z" />
<glyph unicode="~" d="M41 522q95 154 227 154q42 0 87 -15.5t118 -52.5q74 -36 114.5 -50.5t78.5 -14.5q51 0 90 26.5t86 94.5l61 -64q-44 -77 -107 -120.5t-130 -43.5q-40 0 -78 13.5t-125 54.5q-127 65 -195 65q-55 0 -88 -21.5t-80 -88.5z" />
<glyph unicode="&#xa2;" horiz-adv-x="825" d="M78 590q0 170 92.5 265t251.5 103v367h84v-369q105 -11 170 -57.5t65 -112.5q0 -43 -27.5 -70.5t-76.5 -27.5q-40 0 -64 18t-24 52q0 18 8 37q6 21 6 34q0 36 -29 55t-75 19q-76 0 -115 -68t-39 -223q0 -170 47.5 -244.5t139.5 -74.5q145 0 213 158l49 -23 q-71 -177 -248 -192v-431h-84v428q-159 6 -251.5 97t-92.5 260z" />
<glyph unicode="&#xa3;" horiz-adv-x="1038" d="M57 16q83 50 132 131.5t49 171.5l-5 302h-159v53h159l-2 166q0 211 93 307t299 96q115 0 189.5 -51t74.5 -129q0 -41 -31 -68.5t-74 -27.5q-39 0 -68.5 22.5t-29.5 54.5q0 14 10 37q8 19 8 35q0 74 -100 74q-72 0 -117 -53t-45 -140q0 -3 13 -110q5 -34 12 -90 q5 -42 10 -123h244v-53h-244v-144q0 -84 -39 -164.5t-102 -140.5h297q103 0 162 16q55 15 77.5 50.5t22.5 105.5h57l-20 -350l-60 2q-74 4 -100 4h-504q-67 0 -205 -6z" />
<glyph unicode="&#xa5;" horiz-adv-x="1101" d="M-6 1155v68h498v-68l-109 4h-2q-23 0 -23 -20q0 -11 11 -29l276 -461l264 469q6 9 6 21q0 20 -20 20l-107 -4v68h318v-68l-62 4q-33 0 -57 -43l-233 -418h207v-65h-244l-31 -55v-105h275v-65h-275v-302q0 -43 41 -43l98 5v-68h-510v68l101 -5q39 0 39 46v299h-275v65h275 v59l-62 101h-213v65h174l-254 422q-20 39 -49 39z" />
<glyph unicode="&#xa8;" horiz-adv-x="806" d="M63 1219q0 49 38 80.5t96 31.5q56 0 93.5 -31.5t37.5 -80.5q0 -51 -36.5 -82t-94.5 -31q-60 0 -97 31t-37 82zM479 1219q0 49 37 80.5t94 31.5q56 0 93.5 -31.5t37.5 -80.5q0 -51 -36.5 -82t-94.5 -31q-60 0 -95.5 31t-35.5 82z" />
<glyph unicode="&#xa9;" horiz-adv-x="1466" d="M102 610q0 171 84 318q85 147 230.5 231t316.5 84t318 -84q147 -87 231 -232.5t84 -316.5q0 -170 -84 -317q-86 -147 -232 -230t-317 -83q-172 0 -317 83q-146 85 -230 230t-84 317zM174 610q0 -155 74 -282q74 -130 201.5 -204.5t281.5 -74.5q158 0 283 76 q128 74 201 202t73 283t-74 285t-201.5 205.5t-281.5 75.5q-157 0 -282 -76q-128 -75 -201.5 -205t-73.5 -285zM385 612q0 167 96 260t269 93q71 0 155 -31q55 -21 96 -21q-4 -66 -4 -82q0 -57 4 -65l-45 -2q-12 61 -65 106t-113 45q-93 0 -138.5 -74.5t-45.5 -228.5 q0 -290 188 -290q66 0 116.5 42.5t64.5 108.5h49l-6 -100q0 -15 4 -51q-42 -3 -117 -25q-95 -29 -150 -29q-167 0 -262.5 92t-95.5 252z" />
<glyph unicode="&#xab;" horiz-adv-x="931" d="M51 399l340 351h80l-201 -351l201 -350h-80zM410 399l340 351h79l-200 -351l200 -350h-79z" />
<glyph unicode="&#xad;" horiz-adv-x="512" d="M45 381v119h422v-119h-422z" />
<glyph unicode="&#xae;" horiz-adv-x="1003" d="M90 844q0 115 53 207q54 91 148 141.5t211 50.5q115 0 207 -51q95 -52 149.5 -143t54.5 -205q0 -115 -55 -203q-55 -92 -149 -143.5t-207 -51.5q-117 0 -211 52q-94 51 -147.5 142.5t-53.5 203.5zM154 844q0 -153 98.5 -246.5t247.5 -93.5t248.5 94t99.5 246 q0 153 -99.5 247.5t-248.5 94.5t-247.5 -94.5t-98.5 -247.5zM295 649v45h31q12 0 12 15v284q0 15 -16 15h-27v45h235q158 0 158 -99q0 -44 -31.5 -74.5t-87.5 -41.5q50 0 88.5 -30t38.5 -75q0 -26 9.5 -36t29.5 -5v-43h-86q-86 0 -86 70v22q0 66 -65 66h-29v-98 q0 -15 16 -15h33v-45h-223zM469 856h33q25 0 40 22.5t15 55.5q0 74 -57 74h-21q-10 0 -10 -7v-145z" />
<glyph unicode="&#xb4;" horiz-adv-x="565" d="M74 1022q0 13 35 51l194 213q27 31 43 43q8 8 31 8q35 0 81 -23t46 -40q0 -15 -23 -31l-338 -221q-27 -15 -45 -18q-24 0 -24 18z" />
<glyph unicode="&#xb8;" horiz-adv-x="485" d="M66 -406l20 58q24 -27 72 -27q43 0 75.5 30.5t32.5 72.5t-69 79l-47 29q-23 16 -23 31t12 27l84 106h74l-51 -82q-13 -23 -13 -39q0 -11 17 -18q16 -6 49 -15q62 -13 91.5 -34t29.5 -62q0 -86 -59.5 -137t-153.5 -51q-92 0 -141 32z" />
<glyph unicode="&#xbb;" horiz-adv-x="927" d="M102 49l201 350l-201 351h82l338 -351l-338 -350h-82zM455 49l200 350l-200 351h82l337 -351l-337 -350h-82z" />
<glyph unicode="&#x2c6;" horiz-adv-x="782" d="M72 1026q0 7 16 23t37 34q34 31 106 103l48 49l49 49q45 45 63 45q19 0 64 -45l49 -49l47 -49q72 -72 106 -103q35 -30 39 -34q15 -15 15 -23q0 -16 -21 -16q-22 0 -63 24l-236 144l-237 -144q-41 -24 -62 -24q-20 0 -20 16z" />
<glyph unicode="&#x2da;" horiz-adv-x="485" d="M68 1178q0 69 50.5 118.5t123.5 49.5q74 0 125 -48t51 -120t-51 -120t-125 -48t-124 48t-50 120zM162 1178q0 -43 21.5 -67t58.5 -24t59.5 25t22.5 66t-22.5 64.5t-59.5 23.5t-58.5 -23.5t-21.5 -64.5z" />
<glyph unicode="&#x2dc;" horiz-adv-x="729" d="M72 1081q0 86 36 140.5t95 54.5q48 0 182 -45q118 -39 158 -39q29 0 48 22.5t19 59.5h47q0 -86 -36 -140.5t-95 -54.5q-57 0 -182 45q-118 41 -156 41q-29 0 -48 -23.5t-19 -60.5h-49z" />
<glyph unicode="&#x2000;" horiz-adv-x="753" />
<glyph unicode="&#x2001;" horiz-adv-x="1507" />
<glyph unicode="&#x2002;" horiz-adv-x="753" />
<glyph unicode="&#x2003;" horiz-adv-x="1507" />
<glyph unicode="&#x2004;" horiz-adv-x="502" />
<glyph unicode="&#x2005;" horiz-adv-x="376" />
<glyph unicode="&#x2006;" horiz-adv-x="251" />
<glyph unicode="&#x2007;" horiz-adv-x="251" />
<glyph unicode="&#x2008;" horiz-adv-x="188" />
<glyph unicode="&#x2009;" horiz-adv-x="301" />
<glyph unicode="&#x200a;" horiz-adv-x="83" />
<glyph unicode="&#x2010;" horiz-adv-x="512" d="M45 381v119h422v-119h-422z" />
<glyph unicode="&#x2011;" horiz-adv-x="512" d="M45 381v119h422v-119h-422z" />
<glyph unicode="&#x2012;" horiz-adv-x="512" d="M45 381v119h422v-119h-422z" />
<glyph unicode="&#x2013;" horiz-adv-x="976" d="M37 387v88h903v-88h-903z" />
<glyph unicode="&#x2014;" horiz-adv-x="1626" d="M0 387v88h1626v-88h-1626z" />
<glyph unicode="&#x2018;" horiz-adv-x="483" d="M55 977q0 103 69 192t177 152l33 -33q-56 -43 -96.5 -102t-40.5 -105q0 -55 65 -55q42 0 66 -29t24 -73q0 -51 -39 -87t-98 -36q-74 0 -117 48t-43 128z" />
<glyph unicode="&#x2019;" horiz-adv-x="483" d="M133 1174q0 50 39 86t98 36q74 0 116 -48t42 -128q0 -104 -68.5 -193t-175.5 -151l-34 33q57 43 98 102t41 105q0 55 -68 55q-41 0 -64.5 29t-23.5 74z" />
<glyph unicode="&#x201a;" horiz-adv-x="573" d="M211 70q0 51 39 87t98 36q74 0 116 -48t42 -129q0 -104 -68.5 -193t-175.5 -151l-35 33q58 43 99 102t41 105q0 55 -68 55q-41 0 -64.5 29t-23.5 74z" />
<glyph unicode="&#x201c;" horiz-adv-x="858" d="M55 979q0 104 68.5 193t175.5 151l35 -33q-57 -43 -98 -102t-41 -105q0 -55 67 -55q41 0 64.5 -29t23.5 -73q0 -51 -39 -87t-98 -36q-74 0 -116 48t-42 128zM428 979q0 103 69 192t177 152l35 -33q-58 -43 -99 -102t-41 -105q0 -55 68 -55q41 0 64.5 -29t23.5 -73 q0 -51 -39 -87t-98 -36q-74 0 -117 48t-43 128z" />
<glyph unicode="&#x201d;" horiz-adv-x="858" d="M133 1174q0 50 39 86t98 36q74 0 116 -48t42 -128q0 -104 -68.5 -193t-175.5 -151l-34 33q57 43 98 102t41 105q0 55 -68 55q-41 0 -64.5 29t-23.5 74zM506 1174q0 50 40 86t99 36q74 0 116 -48t42 -128q0 -104 -68.5 -193t-175.5 -151l-35 33q57 42 97.5 101.5 t40.5 105.5q0 55 -66 55q-42 0 -66 29.5t-24 73.5z" />
<glyph unicode="&#x201e;" horiz-adv-x="966" d="M211 70q0 51 39 87t98 36q74 0 116 -48t42 -129q0 -104 -68.5 -193t-175.5 -151l-35 33q58 43 99 102t41 105q0 55 -68 55q-41 0 -64.5 29t-23.5 74zM604 70q0 51 39 87t98 36q74 0 116 -48t42 -129q0 -104 -68.5 -193t-175.5 -151l-34 33q57 43 98 102t41 105 q0 55 -68 55q-41 0 -64.5 29t-23.5 74z" />
<glyph unicode="&#x2022;" horiz-adv-x="960" d="M195 506q0 110 81 181t203 71t202.5 -71t80.5 -181t-80.5 -181t-202.5 -71q-124 0 -204 71t-80 181z" />
<glyph unicode="&#x2026;" horiz-adv-x="1462" d="M109 113q0 61 44.5 98t112.5 37q70 0 115 -37t45 -98t-45 -97t-115 -36q-69 0 -113 36.5t-44 96.5zM573 113q0 61 44.5 98t113.5 37q70 0 114 -37t44 -98t-44 -97t-114 -36t-114 36t-44 97zM1038 113q0 61 44 98t114 37q69 0 113.5 -37t44.5 -98q0 -60 -44.5 -96.5 t-113.5 -36.5q-70 0 -114 36t-44 97z" />
<glyph unicode="&#x202f;" horiz-adv-x="301" />
<glyph unicode="&#x2039;" horiz-adv-x="571" d="M49 399l340 351h80l-201 -351l201 -350h-80z" />
<glyph unicode="&#x203a;" horiz-adv-x="569" d="M102 49l201 350l-201 351h82l338 -351l-338 -350h-82z" />
<glyph unicode="&#x205f;" horiz-adv-x="376" />
<glyph unicode="&#x20ac;" horiz-adv-x="970" d="M4 444l21 84h69q-2 16 -2 76q0 58 2 74h-90l21 84h77q32 231 161.5 356t332.5 125q58 0 98.5 -10.5t108.5 -38.5q86 -39 141 -39q-8 -57 -8 -154q0 -52 2 -75q3 -36 6 -39h-55q-19 125 -97 212t-174 87q-105 0 -175.5 -112.5t-90.5 -311.5h447l-21 -84h-430 q-2 -16 -2 -74q0 -60 2 -76h451l-21 -84h-424q23 -189 96 -295t179 -106q99 0 174.5 84.5t95.5 214.5h64q-13 -107 -13 -174q0 -58 6 -96h-12q-45 0 -137 -37q-77 -30 -123 -42.5t-96 -12.5q-195 0 -322 122t-162 342h-100z" />
<glyph unicode="&#x2122;" horiz-adv-x="1566" d="M20 1071v152h588v-152h-43q0 56 -30 82.5t-97 26.5h-22q-13 0 -13 -11v-471q0 -22 21 -22l53 2v-43h-330v43l56 -2q8 0 13 7t5 17v467q0 13 -12 13h-23q-65 0 -95 -26.5t-32 -82.5h-39zM676 635v43l39 -2q20 0 20 22v476q0 6 -10 6l-43 -2v45h260l182 -379l179 379h225 v-45l-29 2q-18 0 -18 -21v-461q0 -22 20 -22l33 2v-43h-303v43l51 -2q21 0 21 22v414l-224 -479h-39l-254 520v-455q0 -22 21 -22l49 2v-43h-180z" />
<glyph unicode="&#x25fc;" horiz-adv-x="860" d="M0 0v860h860v-860h-860z" />
</font>
</defs>
</svg>
